<svg width="158" height="32" viewBox="0 0 158 32" fill="none" xmlns="http://www.w3.org/2000/svg">
<mask id="mask0_3561_4504" style="mask-type:luminance" maskUnits="userSpaceOnUse" x="0" y="0" width="158" height="32">
<path d="M157.188 0H0V32H157.188V0Z" fill="white"/>
</mask>
<g mask="url(#mask0_3561_4504)">
<path d="M20.9921 13.6475C21.1824 11.3918 22.9427 9.93828 25.0836 9.93828C26.3074 9.93828 27.2244 10.3976 27.7986 11.1227L20.9921 13.6459V13.6475ZM8.64062 5.99939C6.84425 5.99939 5.19881 6.64903 4.08982 7.64319V1.79309H0V14.0281C0 18.6921 3.36471 22.1716 7.95324 22.1716C12.5418 22.1716 16.1739 18.615 16.1739 13.9887C16.1739 9.62986 13.0766 5.99775 8.64062 5.99775M25.2361 22.1733C27.6838 22.1733 30.0543 21.2562 31.9278 19.3828L29.2899 16.6677C28.4483 17.6241 26.7667 18.236 25.1984 18.236C23.8991 18.236 22.8656 17.8161 22.1782 17.0893L33.1139 13.0356V14.6794C33.1139 19.8798 36.746 22.1733 41.602 22.1733V18.0818C39.0017 18.0818 37.2054 17.0877 37.2054 14.2971V11.5066L41.602 9.86281V6.00103L37.2054 7.64483V1.79309H33.1139V9.17215L31.6998 9.66923C30.476 7.45125 28.0677 5.99939 25.1229 5.99939C20.4967 5.99939 16.9023 9.47893 16.9023 14.0297C16.9023 18.5805 20.4967 22.1733 25.2378 22.1733M8.10581 18.236C5.88783 18.236 4.09146 16.4774 4.09146 14.1068C4.09146 11.7363 5.88783 9.93992 8.10581 9.93992C10.3238 9.93992 12.0824 11.7363 12.0824 14.1068C12.0824 16.4774 10.3238 18.236 8.10581 18.236ZM0 32L16.0968 26.1122V21.9436L0 27.8331V32.0016V32Z" fill="#FCBF24"/>
<path d="M97.3235 1.82098C97.3235 2.76592 96.5147 3.5747 95.5025 3.5747C94.4903 3.5747 93.7488 2.76592 93.7488 1.82098C93.7488 0.808777 94.4903 0 95.5025 0C96.5147 0 97.3235 0.808777 97.3235 1.82098ZM148.419 11.6674V21.7172H145.722V19.0875C144.778 21.1102 142.486 22.1224 140.461 22.1224C137.494 22.1224 134.729 20.436 134.729 17.6044C134.729 14.7729 136.685 13.828 139.72 12.9503L145.722 11.2638C145.521 9.84805 144.441 8.5668 141.675 8.5668C139.516 8.5668 137.628 8.97201 135.807 9.71353V7.15103C137.426 6.47678 139.382 6.00431 141.675 6.00431C146.262 6.00431 148.419 8.29776 148.419 11.669V11.6674ZM145.722 13.6229L140.192 15.3093C138.304 15.8491 137.495 16.4561 137.495 17.6028C137.495 18.8168 138.642 19.6928 140.53 19.6928C143.565 19.6928 145.724 17.6028 145.724 15.3093V13.6229H145.722ZM156.176 19.4238C154.76 19.4238 154.017 18.9513 154.017 17.401V1.88824H151.387V17.6028C151.387 20.436 153.141 21.8517 155.434 21.8517C155.907 21.8517 156.447 21.8517 157.188 21.65V19.2892C156.85 19.3565 156.447 19.4238 156.176 19.4238ZM126.366 6.00267C124.005 6.00267 122.386 6.81144 121.375 8.56516V6.33897H118.678V21.7156H121.375V13.6229C121.375 10.25 123.062 8.4979 125.759 8.4979C127.782 8.4979 129.67 9.71188 129.67 12.4089V21.7156H132.3V12.2727C132.3 8.69804 130.141 6.00103 126.364 6.00103L126.366 6.00267ZM94.154 21.7172H96.851V6.33897H94.154V21.7156V21.7172ZM80.9347 14.0954C80.9347 11.8692 82.216 8.56516 86.5994 8.56516C88.1514 8.56516 89.8362 8.90311 91.0502 9.57736V6.88035C90.1052 6.34061 88.3531 6.00431 86.5994 6.00431C81.609 6.00431 78.1688 9.37722 78.1688 14.1643C78.1688 18.9513 81.4728 22.1897 86.4649 22.1897C88.7583 22.1897 90.1741 21.65 91.1191 21.1775V18.3443C89.9723 19.2203 88.1514 19.6256 86.4649 19.6256C82.485 19.6256 80.9347 16.5906 80.9347 14.0954ZM75.539 11.6674V21.7172H72.842V19.0875C71.8971 21.1102 69.6053 22.1224 67.5136 22.1224C64.5459 22.1224 61.8489 20.436 61.8489 17.6044C61.8489 14.7729 63.8044 13.828 66.8393 12.9503L72.842 11.2638C72.6402 9.84805 71.5608 8.5668 68.7948 8.5668C66.6359 8.5668 64.7477 8.97201 62.9267 9.71353V7.15103C64.5459 6.47678 66.4341 6.00431 68.7948 6.00431C73.3817 6.00431 75.539 8.29776 75.539 11.669V11.6674ZM72.842 13.6229L67.3118 15.3093C65.4236 15.8491 64.6148 16.4561 64.6148 17.6028C64.6148 18.8168 65.7615 19.6928 67.6498 19.6928C70.6847 19.6928 72.8437 17.6028 72.8437 15.3093V13.6229H72.842ZM53.3493 6.00267C51.2593 6.00267 49.5056 6.94761 48.4934 8.56516V6.33897H45.7275V21.7156H48.4934V13.6229C48.4934 10.4534 50.0453 8.4979 52.8769 8.4979C55.1031 8.4979 56.7206 9.77915 56.7206 12.2744V21.7172H59.4176V12.1399C59.4176 9.10489 57.7312 6.00267 53.3477 6.00267H53.3493ZM115.709 14.0281C115.709 18.8168 112.336 22.188 107.616 22.188C102.897 22.188 99.5234 18.8151 99.5234 14.0281C99.5234 9.24106 102.897 6.00267 107.616 6.00267C112.336 6.00267 115.709 9.30668 115.709 14.0281ZM112.878 14.0281C112.878 10.9931 110.584 8.56516 107.616 8.56516C104.649 8.56516 102.355 10.9931 102.355 14.0281C102.355 17.0631 104.649 19.6256 107.616 19.6256C110.584 19.6256 112.878 17.1303 112.878 14.0281Z" fill="white"/>
</g>
</svg>
