<svg width="64" height="16" viewBox="0 0 64 16" fill="none" xmlns="http://www.w3.org/2000/svg">
<path d="M36.4684 5.04818C36.4684 3.26406 36.5005 1.60298 36.5967 0.0649414L31.692 0.957001V1.38765L32.1728 1.44918C32.5255 1.47994 32.7499 1.60298 32.8781 1.78754C33.0063 2.00287 33.1025 2.31048 33.1666 2.77189C33.2307 3.66395 33.2948 5.69416 33.2628 8.89327C33.2628 12.0616 33.2307 14.0611 33.1666 14.8301C34.9297 15.1992 36.3082 15.353 37.334 15.353C39.2574 15.353 40.764 14.8301 41.854 13.7535C42.9439 12.7076 43.5209 11.2311 43.5209 9.41621C43.5209 7.97045 43.1042 6.77078 42.2707 5.8172C41.4372 4.86362 40.3794 4.4022 39.1291 4.4022C38.2957 4.4022 37.4301 4.61753 36.4684 5.04818ZM36.5646 14.5225C36.5005 13.5381 36.4364 10.5851 36.4364 5.75568C36.7249 5.66339 37.1096 5.60187 37.5904 5.60187C38.3598 5.60187 38.9689 5.971 39.4177 6.74002C39.8665 7.50904 40.0908 8.43186 40.0908 9.60077C40.0908 11.0465 39.8344 12.2154 39.3215 13.1998C38.8086 14.1534 38.1674 14.6455 37.366 14.6455C37.1096 14.584 36.8531 14.5532 36.5646 14.5225ZM13.2914 0.372549H0.46875V0.987763L1.14194 1.04929C1.65485 1.14157 2.00747 1.32613 2.23187 1.60298C2.45627 1.91059 2.58449 2.40276 2.61655 3.07949C2.873 6.40165 2.873 9.50848 2.61655 12.3692C2.55244 13.046 2.42421 13.5381 2.23187 13.8457C2.00747 14.1534 1.65485 14.3379 1.14194 14.3994L0.46875 14.4917V15.1069H8.73938V14.4917L7.87385 14.4302C7.36094 14.3687 7.00832 14.1534 6.78392 13.8765C6.55953 13.5689 6.4313 13.0767 6.39924 12.4C6.30307 11.1696 6.23896 9.75457 6.23896 8.18577L7.97002 8.21653C8.89967 8.24729 9.5408 8.92403 9.86137 10.2775H10.5025V5.26351H9.86137C9.5408 6.58622 8.93172 7.26295 7.97002 7.29371L6.23896 7.32447C6.23896 4.55601 6.30307 2.58732 6.39924 1.38765H8.93172C10.7269 1.38765 11.9451 2.49504 12.6503 4.70981L13.4197 4.49449L13.2914 0.372549ZM11.7848 9.84686C11.7848 11.4464 12.2656 12.7691 13.1953 13.815C14.1249 14.8609 15.5033 15.353 17.2344 15.353C18.9655 15.353 20.376 14.8301 21.4018 13.7535C22.4276 12.7076 22.9084 11.3849 22.9084 9.78533C22.9084 8.18577 22.4276 6.86306 21.498 5.8172C20.5683 4.77133 19.1899 4.27916 17.4588 4.27916C15.7277 4.27916 14.3173 4.8021 13.2914 5.87872C12.2656 6.92459 11.7848 8.2473 11.7848 9.84686ZM18.9334 6.34013C19.3181 7.23219 19.4784 8.4011 19.4784 9.81609C19.4784 13.0767 18.7731 14.6763 17.3947 14.6763C16.6894 14.6763 16.1445 14.2149 15.7598 13.2921C15.3751 12.3692 15.2148 11.2003 15.2148 9.81609C15.2148 6.58621 15.9201 4.98666 17.2985 4.98666C18.0038 4.9559 18.5487 5.41731 18.9334 6.34013ZM46.0213 13.815C47.0792 14.8301 48.4256 15.353 50.0284 15.353C51.0222 15.353 51.8877 15.1685 52.6571 14.7686C53.4264 14.3994 54.0355 13.938 54.4523 13.3843L54.1317 13.0152C53.4264 13.5381 52.625 13.7842 51.6954 13.7842C50.4131 13.7842 49.4194 13.3843 48.7462 12.5538C48.0409 11.7233 47.7203 10.6774 47.7845 9.32392H54.6446C54.6446 7.84741 54.2599 6.64774 53.4585 5.69416C52.6571 4.77134 51.5351 4.30992 50.0925 4.30992C48.2974 4.30992 46.9189 4.86362 45.9252 5.94024C44.9314 7.01687 44.4506 8.33958 44.4506 9.90838C44.4506 11.5079 44.9635 12.7999 46.0213 13.815ZM48.3935 6.09404C48.7462 5.35579 49.195 4.98666 49.804 4.98666C50.7657 4.98666 51.2466 6.15557 51.2466 8.52414L47.8486 8.58566C47.8806 7.66284 48.0409 6.8323 48.3935 6.09404ZM63.2679 4.86362C62.4023 4.49449 61.3124 4.27916 59.9981 4.27916C58.6517 4.27916 57.5938 4.61753 56.7924 5.26351C55.991 5.90948 55.5742 6.70926 55.5742 7.66284C55.5742 8.49338 55.8307 9.13936 56.3115 9.60077C56.7924 10.0622 57.5618 10.4621 58.5555 10.8004C59.4531 11.108 60.0942 11.4157 60.4148 11.6925C60.7354 12.0001 60.9277 12.3385 60.9277 12.7999C60.9277 13.2305 60.7674 13.6304 60.4148 13.938C60.0942 14.2764 59.6454 14.4302 59.0684 14.4302C57.6579 14.4302 56.6001 13.4459 55.8628 11.4772L55.3178 11.631L55.446 14.707C56.6001 15.1377 57.8823 15.353 59.2928 15.353C60.7674 15.353 61.8894 15.0454 62.7229 14.3994C63.5564 13.7842 63.9731 12.8922 63.9731 11.7848C63.9731 11.0465 63.7808 10.4313 63.364 9.9699C62.9473 9.50849 62.2741 9.10859 61.3124 8.73946C60.2545 8.37034 59.5172 8.03197 59.1325 7.72436C58.7479 7.41675 58.5555 7.04763 58.5555 6.58621C58.5555 6.1248 58.6837 5.75568 58.9723 5.44807C59.2608 5.14046 59.6134 5.01742 60.0622 5.01742C61.3445 5.01742 62.2741 5.90948 62.8511 7.66284L63.3961 7.50904L63.2679 4.86362ZM32.4293 4.58677C31.9805 4.37144 31.4996 4.27916 30.9547 4.27916C30.4097 4.27916 29.8648 4.49449 29.2557 4.92514C28.6466 5.35579 28.1978 5.94024 27.8452 6.74002L27.8772 4.27916L23.0046 5.20198V5.63264L23.4855 5.66339C24.0945 5.72492 24.4472 6.18633 24.5113 7.01687C24.7036 8.92403 24.7036 10.9542 24.5113 13.1075C24.4472 13.938 24.0945 14.3687 23.4855 14.461L23.0046 14.5225V15.1069H29.8006V14.5225L28.9351 14.461C28.326 14.3994 27.9734 13.938 27.9093 13.1075C27.717 11.3234 27.6849 9.4162 27.8452 7.44751C28.0375 7.13991 28.4543 6.95534 29.0954 6.89382C29.7365 6.8323 30.4738 7.01687 31.2432 7.44751L32.4293 4.58677Z" fill="white"/>
</svg>
