<svg class="gamcare-footer-icon" xmlns="http://www.w3.org/2000/svg" width="36" height="24" viewBox="0 0 36 24" fill="none">
                            <path d="M3.0488 2.9268V4.44875H3.6927H4.3366V3.5707V2.69265L18.362 2.71607L32.3756 2.75119V12V21.2488L18.362 21.2839L4.3366 21.3073V20.4292V19.5512H3.6927H3.0488V21.0731V22.5951L18.362 22.5717L33.6634 22.5366V12V1.46339L18.362 1.42826L3.0488 1.40485V2.9268Z" fill="white"></path>
                            <path d="M1.72586 6.50927C1.67903 6.5561 1.64391 7.00098 1.64391 7.50439V8.41756L2.03025 8.45269L2.40489 8.48781V12V15.5122L2.01854 15.5473L1.6322 15.5824L1.66732 16.5424L1.70245 17.5024H3.40001H5.09757L5.13269 16.5424L5.16781 15.5824L4.78147 15.5473L4.39513 15.5122L4.36001 12.2107L4.33659 8.89756L3.95025 8.69854L3.57562 8.48781L4.37171 8.45269L5.16781 8.41756L5.13269 7.45756L5.09757 6.49756L3.44684 6.46244C2.54537 6.45073 1.77269 6.47415 1.72586 6.50927Z" fill="white"></path>
                            <path d="M6.32684 12V17.561H8.99611C10.4595 17.561 11.8527 17.5024 12.0868 17.4439C12.6722 17.28 13.2225 16.8 13.48 16.2146C13.6439 15.8517 13.7025 15.4537 13.7025 14.4819C13.7025 13.0302 13.5386 12.5151 12.9883 12.2224C12.801 12.1288 12.6488 12.0234 12.6488 12C12.6488 11.9766 12.801 11.8712 12.9883 11.7776C13.5386 11.4849 13.7025 10.9698 13.7025 9.51805C13.7025 8.54634 13.6439 8.14829 13.48 7.78536C13.2225 7.2 12.6722 6.72 12.0868 6.5561C11.8527 6.49756 10.4595 6.43902 8.99611 6.43902H6.32684V12ZM11.5015 8.62829C11.6654 8.78049 11.7122 8.99122 11.7122 9.69366C11.7122 10.9932 11.6888 11.0049 9.75709 11.0049H8.20001V9.71707V8.42927H9.74538C11.0098 8.42927 11.3259 8.46439 11.5015 8.62829ZM11.5249 13.2527C11.6537 13.4283 11.7122 13.7795 11.7122 14.3532C11.7122 15.1376 11.6888 15.2195 11.3961 15.4537C11.1151 15.6761 10.9629 15.6878 9.67514 15.6644L8.25855 15.6293L8.22343 14.5522C8.18831 13.4751 8.18831 13.4634 7.84879 13.2878C7.64977 13.1824 7.49757 13.0771 7.49757 13.0537C7.49757 13.0185 8.36392 12.9951 9.41757 12.9951C11.279 12.9951 11.3493 13.0068 11.5249 13.2527Z" fill="white"></path>
                            <path d="M16.7464 7.37561V8.31219H18.081C19.4507 8.31219 19.7786 8.40585 19.2634 8.64L18.9707 8.78049V11.9883V15.2078L18.6664 15.4419C18.3854 15.6644 18.1981 15.6878 16.5005 15.6878H14.639V16.6244V17.561H16.8634C19.24 17.561 19.6615 17.4907 20.2351 16.9405C20.8439 16.3785 20.8439 16.3902 20.8439 11.239V6.43902H18.7951H16.7464V7.37561Z" fill="white"></path>
                            <path d="M22.1317 12V17.561H23.0683H24.0049V15.5239V13.4868L23.6303 13.241L23.2439 12.9951H25.1873C26.92 12.9951 27.1542 13.0185 27.3181 13.2059C27.4937 13.3932 27.5171 13.7327 27.5171 15.4888V17.561H28.5122H29.5073V15.3015C29.5073 13.2644 29.4839 13.0185 29.2732 12.6673C29.1444 12.4566 28.9102 12.2224 28.7463 12.1522L28.4537 12.0234L28.8049 11.8127C29.4254 11.438 29.5307 11.04 29.4839 9.37756C29.4488 7.96097 29.4371 7.85561 29.121 7.41073C28.8985 7.08293 28.5942 6.84878 28.2195 6.68488C27.6927 6.46244 27.4351 6.43902 24.8946 6.43902H22.1317V12ZM27.2712 8.59317C27.482 8.78049 27.5171 8.9561 27.5171 9.69366C27.5171 10.9932 27.4937 11.0049 25.562 11.0049H24.0049V9.74049C24.0049 9.03805 24.04 8.42927 24.0868 8.38244C24.1454 8.33561 24.8244 8.31219 25.5971 8.33561C26.8029 8.35902 27.0605 8.40585 27.2712 8.59317Z" fill="white"></path>
                          </svg>