<svg width="68" height="68" viewBox="0 0 68 68" fill="none" xmlns="http://www.w3.org/2000/svg">
<path fill-rule="evenodd" clip-rule="evenodd" d="M38.244 29.5357L36.9288 28.7475L36.8312 28.9019C36.5314 29.377 36.1218 29.618 35.6141 29.6175C34.7443 29.617 34.0887 28.9551 34.0892 28.0775C34.0896 27.2001 34.746 26.5391 35.6158 26.5394C36.1306 26.5398 36.5176 26.768 36.833 27.2577L36.9313 27.4099L38.2525 26.6199L38.1383 26.4532C37.5072 25.5309 36.6822 25.0825 35.6167 25.0817C33.6022 25.0808 32.5143 26.624 32.5137 28.0764C32.5129 29.5291 33.5988 31.0737 35.6133 31.0747C36.6396 31.0753 37.6079 30.5487 38.1407 29.7002L38.244 29.5357ZM41.9131 26.2683L42.649 28.1322L41.1671 28.1313L41.9131 26.2683ZM38.1781 31.0762L39.9965 31.0773L40.5367 29.7215L43.2653 29.7231L43.804 31.0793L45.6301 31.0805L42.3729 23.1349L40.751 23.1338L41.1828 24.1871L38.1781 31.0762ZM46.3829 31.0806L47.9784 31.0816L47.9804 27.5157L49.0207 27.5163L49.0215 26.0203L47.9811 26.0197L47.9816 25.3127C47.9816 25.0094 48.1831 24.6871 48.5563 24.6873C48.7613 24.6875 48.8852 24.7228 49.0084 24.7761L49.1862 24.8532L49.8489 23.3935L49.6581 23.3148C49.3615 23.192 48.9485 23.1481 48.6605 23.1479C47.9369 23.1475 47.3406 23.3861 46.9354 23.8377C46.5816 24.232 46.3864 24.7806 46.386 25.3817L46.3855 26.0188L45.681 26.0185L45.6802 27.5145L46.3849 27.5146L46.3829 31.0806Z" fill="#AD262A"/>
<path fill-rule="evenodd" clip-rule="evenodd" d="M24.9922 23.0879V31.0688L26.726 31.07L26.7284 26.507L28.4083 27.7703L30.09 26.507V31.0719L31.8214 31.0725L31.8256 23.0879L28.4095 25.692L24.9922 23.0879Z" fill="#AD262A"/>
<path fill-rule="evenodd" clip-rule="evenodd" d="M51.224 27.3587C51.4323 26.8142 51.8818 26.4965 52.4624 26.4966C53.0492 26.4969 53.5074 26.8082 53.7502 27.36L51.224 27.3587ZM52.6155 25.1094C50.6073 25.1083 49.5226 26.6471 49.5215 28.0952C49.521 29.5437 50.6039 31.0834 52.6123 31.0846H52.6145C53.5354 31.0745 54.399 30.6513 55.0675 29.8878L53.7662 29.1719C53.4324 29.5165 53.0273 29.6978 52.5802 29.6975C51.9249 29.6971 51.3438 29.2565 51.1917 28.6804L55.5313 28.6827L55.5316 28.2852C55.5327 26.0959 53.8271 25.11 52.6155 25.1094ZM57.7465 27.3623C57.9545 26.8179 58.4036 26.5 58.9847 26.5005C59.5715 26.5006 60.0298 26.8121 60.2726 27.3639L57.7465 27.3623ZM59.1376 25.1131C57.1292 25.1118 56.045 26.6506 56.0441 28.0988C56.0431 29.5476 57.1259 31.0871 59.1346 31.0881H59.1366C60.0577 31.0782 60.9214 30.6547 61.5896 29.8914L60.2883 29.1755C59.9546 29.5202 59.5495 29.7015 59.1026 29.7012C58.447 29.7007 57.8659 29.2604 57.714 28.6841L62.0535 28.6864L62.0539 28.2889C62.0551 26.0996 60.3494 25.1137 59.1376 25.1131Z" fill="#AD262A"/>
<path fill-rule="evenodd" clip-rule="evenodd" d="M62.959 33.4814H64.0135V33.6802H63.5991V34.7949H63.3716V33.6802H62.959V33.4814Z" fill="white"/>
<path fill-rule="evenodd" clip-rule="evenodd" d="M64.1602 33.4814H64.4814L64.8408 34.5099H64.8444L65.1947 33.4814H65.5117V34.7949H65.2945V33.7812H65.2909L64.9303 34.7949H64.7422L64.3804 33.7812H64.3774V34.7949H64.1602V33.4814Z" fill="white"/>
<path fill-rule="evenodd" clip-rule="evenodd" d="M29.9191 38.9489C29.9191 39.6324 29.6753 40.1709 29.1877 40.5643C28.6999 40.958 28.0215 41.1547 27.1524 41.1547C26.3515 41.1547 25.6432 41.0029 25.0273 40.6991V39.2078C25.5337 39.4357 25.9623 39.5962 26.3131 39.6894C26.6638 39.7825 26.9846 39.8292 27.2755 39.8292C27.6246 39.8292 27.8923 39.7619 28.0789 39.6273C28.2653 39.4927 28.3587 39.2925 28.3587 39.0265C28.3587 38.8782 28.3176 38.746 28.2355 38.6303C28.1534 38.5148 28.0327 38.4035 27.8735 38.2964C27.7145 38.1895 27.3901 38.0186 26.9008 37.7838C26.4423 37.5664 26.0983 37.3574 25.8691 37.1572C25.6397 36.9571 25.4566 36.724 25.3198 36.4582C25.1829 36.1924 25.1145 35.8818 25.1145 35.5261C25.1145 34.8564 25.3395 34.33 25.7894 33.9468C26.2396 33.5637 26.8613 33.3721 27.6554 33.3721C28.0455 33.3721 28.4177 33.4186 28.7718 33.5119C29.126 33.605 29.4964 33.7362 29.8832 33.9054L29.3698 35.1533C28.9694 34.9877 28.6384 34.872 28.3765 34.8065C28.1148 34.7409 27.8572 34.708 27.6041 34.708C27.3029 34.708 27.0719 34.7788 26.9112 34.9204C26.7503 35.0619 26.6699 35.2466 26.6699 35.4743C26.6699 35.616 26.7023 35.7394 26.7674 35.8445C26.8324 35.9499 26.9358 36.0518 27.0779 36.1501C27.2199 36.2484 27.5561 36.4255 28.0866 36.6808C28.7881 37.0192 29.2688 37.3583 29.529 37.6984C29.789 38.0384 29.9191 38.4553 29.9191 38.9489Z" fill="white"/>
<path fill-rule="evenodd" clip-rule="evenodd" d="M35.4607 41.0517H31.1387V33.4814H35.4607V34.7964H32.7296V36.4586H35.2707V37.7736H32.7296V39.7257H35.4607V41.0517Z" fill="white"/>
<path fill-rule="evenodd" clip-rule="evenodd" d="M39.9294 34.708C39.3304 34.708 38.8669 34.935 38.5383 35.389C38.2099 35.8429 38.0456 36.4756 38.0456 37.2867C38.0456 38.9748 38.6734 39.8187 39.9294 39.8187C40.4564 39.8187 41.0947 39.686 41.8441 39.42V40.7664C41.2281 41.0253 40.5402 41.1547 39.7805 41.1547C38.6888 41.1547 37.8539 40.8208 37.2755 40.1528C36.6972 39.4848 36.4082 38.5262 36.4082 37.2764C36.4082 36.4894 36.55 35.7999 36.8341 35.2077C37.118 34.6156 37.5261 34.1617 38.0585 33.8458C38.5906 33.53 39.214 33.3721 39.9294 33.3721C40.6582 33.3721 41.3905 33.5499 42.1264 33.9054L41.613 35.2103C41.3324 35.0757 41.05 34.9583 40.7661 34.8581C40.482 34.7581 40.2031 34.708 39.9294 34.708ZM49.3122 33.4809V38.3794C49.3122 38.9384 49.1882 39.4288 48.9402 39.8499C48.6919 40.271 48.3335 40.5938 47.8646 40.8182C47.3958 41.0426 46.8416 41.1547 46.2015 41.1547C45.2367 41.1547 44.4872 40.9054 43.9533 40.4065C43.4194 39.9077 43.1526 39.225 43.1526 38.3587V33.4809H44.7387V38.1153C44.7387 38.6987 44.8551 39.1267 45.0877 39.3992C45.3203 39.6721 45.7054 39.8083 46.2426 39.8083C46.7627 39.8083 47.14 39.6712 47.3746 39.3968C47.6089 39.1224 47.7261 38.6918 47.7261 38.1048V33.4809H49.3122ZM52.4217 36.8414H52.9352C53.4382 36.8414 53.8094 36.7569 54.049 36.5876C54.2885 36.4185 54.4084 36.1527 54.4084 35.7902C54.4084 35.4313 54.286 35.1757 54.0413 35.0239C53.7966 34.8719 53.4178 34.796 52.9043 34.796H52.4217V36.8414ZM52.4217 38.1463V41.0511H50.8305V33.4809H53.0173C54.037 33.4809 54.7916 33.668 55.281 34.0426C55.7703 34.4173 56.0149 34.986 56.0149 35.7487C56.0149 36.1942 55.8934 36.5902 55.6506 36.9371C55.4076 37.2841 55.0637 37.5559 54.6187 37.7526C55.7481 39.4547 56.4836 40.554 56.8261 41.0511H55.0603L53.2688 38.1463H52.4217Z" fill="white"/>
<path fill-rule="evenodd" clip-rule="evenodd" d="M61.9685 41.0517H57.6465V33.4814H61.9685V34.7964H59.238V36.4586H61.7785V37.7736H59.238V39.7257H61.9685V41.0517Z" fill="white"/>
<path fill-rule="evenodd" clip-rule="evenodd" d="M5.93042 37.6492V28.618L11.5777 31.2529V26.8955L2.00781 22.4316V40.1744L11.5777 44.642V40.2846L5.93042 37.6492Z" fill="#AD262A"/>
<path fill-rule="evenodd" clip-rule="evenodd" d="M17.2215 37.6487V28.6175L11.5742 31.2524V26.895L21.1441 22.4312V40.174L11.5742 44.6415V40.2842L17.2215 37.6487Z" fill="#5E1D1B"/>
</svg>
