<svg width="68" height="68" viewBox="0 0 68 68" fill="none" xmlns="http://www.w3.org/2000/svg">
<path d="M65.0367 20.5522H3.66691C3.07746 20.5522 2.59961 21.0287 2.59961 21.6165V45.5631C2.59961 46.1509 3.07746 46.6274 3.66691 46.6274H65.0367C65.6261 46.6274 66.104 46.1509 66.104 45.5631V21.6165C66.104 21.0287 65.6261 20.5522 65.0367 20.5522Z" fill="white" stroke="black" stroke-opacity="0.1" stroke-width="0.48047"/>
<path fill-rule="evenodd" clip-rule="evenodd" d="M62.0114 27.7853V28.1453H61.7976V27.2508C61.882 27.2345 62.0001 27.2235 62.152 27.2235C62.3263 27.2235 62.4051 27.2508 62.4726 27.289C62.5232 27.3272 62.5626 27.3981 62.5626 27.4854C62.5626 27.5835 62.4838 27.6599 62.3713 27.6926V27.7035C62.4613 27.7363 62.512 27.8017 62.5401 27.9217C62.5682 28.0581 62.5851 28.1126 62.6076 28.1453H62.377C62.3488 28.1126 62.332 28.0308 62.3038 27.9272C62.287 27.829 62.2307 27.7853 62.1126 27.7853H62.0114ZM62.017 27.3817V27.6381H62.1182C62.2363 27.6381 62.332 27.5999 62.332 27.5072C62.332 27.4254 62.2701 27.3708 62.1351 27.3708C62.0789 27.3708 62.0395 27.3763 62.017 27.3817ZM62.1576 26.7817C62.6919 26.7817 63.1025 27.1799 63.1025 27.6763C63.1025 28.1835 62.6919 28.5817 62.1576 28.5817C61.6289 28.5817 61.207 28.1835 61.207 27.6763C61.207 27.1799 61.6289 26.7817 62.1576 26.7817ZM62.1576 26.9617C61.747 26.9617 61.4433 27.2835 61.4433 27.6763C61.4433 28.0744 61.747 28.3908 62.1632 28.3908C62.5682 28.3908 62.8663 28.0744 62.8663 27.6817C62.8663 27.2835 62.5682 26.9617 62.1576 26.9617Z" fill="#80C600"/>
<path fill-rule="evenodd" clip-rule="evenodd" d="M59.9133 29.491C59.9133 29.1595 59.7679 28.6041 59.1308 28.6041C58.5484 28.6041 58.3117 29.1237 58.2752 29.491H59.9133ZM58.2844 30.4228C58.3299 30.987 58.8942 31.2559 59.5404 31.2559C60.0134 31.2559 60.3957 31.1932 60.7688 31.0766L60.9507 31.9994C60.4957 32.1785 59.9407 32.2682 59.34 32.2682C57.8294 32.2682 56.9648 31.4082 56.9648 30.0375C56.9648 28.9265 57.6656 27.6992 59.2126 27.6992C60.6504 27.6992 61.1965 28.8011 61.1965 29.8851C61.1965 30.1182 61.1693 30.3241 61.151 30.4228H58.2844Z" fill="#80C600"/>
<path fill-rule="evenodd" clip-rule="evenodd" d="M55.7638 26.5435V27.7977H56.7558V28.8011H55.7638V30.3868C55.7638 30.9153 55.8913 31.1573 56.3099 31.1573C56.4828 31.1573 56.6193 31.1393 56.7193 31.1214L56.7285 32.1516C56.5464 32.2233 56.2189 32.2681 55.8275 32.2681C55.3816 32.2681 55.0085 32.1157 54.7901 31.8919C54.5354 31.632 54.4079 31.211 54.4079 30.5928V28.8011H53.8164V27.7977H54.4079V26.8481L55.7638 26.5435Z" fill="#80C600"/>
<path fill-rule="evenodd" clip-rule="evenodd" d="M51.849 32.1787H53.232V27.7978H51.849V32.1787ZM53.2774 26.5795C53.2774 26.9558 52.9864 27.2603 52.5315 27.2603C52.0947 27.2603 51.8036 26.9558 51.8127 26.5795C51.8036 26.1853 52.0947 25.8896 52.5406 25.8896C52.9864 25.8896 53.2684 26.1853 53.2774 26.5795Z" fill="#80C600"/>
<path fill-rule="evenodd" clip-rule="evenodd" d="M47.2547 30.7722C47.6277 30.9603 48.2011 31.1485 48.7925 31.1485C49.4297 31.1485 49.7663 30.8887 49.7663 30.4945C49.7663 30.1182 49.4753 29.9031 48.7379 29.6434C47.7187 29.294 47.0544 28.7385 47.0544 27.8607C47.0544 26.8304 47.928 26.042 49.375 26.042C50.0668 26.042 50.5762 26.1853 50.9403 26.3466L50.6308 27.4485C50.3852 27.3321 49.9484 27.1619 49.3478 27.1619C48.747 27.1619 48.4558 27.4306 48.4558 27.7442C48.4558 28.1294 48.8017 28.2995 49.5934 28.5953C50.6764 28.9894 51.1859 29.5449 51.1859 30.3959C51.1859 31.4082 50.3943 32.2683 48.7107 32.2683C48.0101 32.2683 47.3183 32.0891 46.9727 31.901L47.2547 30.7722Z" fill="#80C600"/>
<path fill-rule="evenodd" clip-rule="evenodd" d="M44.7243 29.6522C44.7243 29.5805 44.7151 29.4819 44.706 29.4104C44.6241 29.043 44.3238 28.7384 43.8961 28.7384C43.2683 28.7384 42.9405 29.2939 42.9405 29.9837C42.9405 30.7273 43.3137 31.1931 43.887 31.1931C44.2875 31.1931 44.6059 30.9244 44.6878 30.5391C44.7151 30.4405 44.7243 30.3421 44.7243 30.2255V29.6522ZM46.1074 25.8179V30.8706C46.1074 31.3633 46.1256 31.8829 46.1439 32.1786H44.9153L44.8516 31.5335H44.8334C44.5513 32.0263 44.0144 32.2772 43.441 32.2772C42.3855 32.2772 41.5391 31.3903 41.5391 30.0285C41.5301 28.5503 42.4674 27.6991 43.5321 27.6991C44.0782 27.6991 44.5059 27.8873 44.706 28.192H44.7243V25.8179H46.1074Z" fill="#323835"/>
<path fill-rule="evenodd" clip-rule="evenodd" d="M39.9192 29.491C39.9192 29.1595 39.7736 28.6041 39.1367 28.6041C38.5543 28.6041 38.3175 29.1237 38.2811 29.491H39.9192ZM38.2903 30.4228C38.3358 30.987 38.8999 31.2559 39.5461 31.2559C40.0193 31.2559 40.4016 31.1932 40.7747 31.0766L40.9566 31.9994C40.5016 32.1785 39.9465 32.2682 39.3458 32.2682C37.8353 32.2682 36.9707 31.4082 36.9707 30.0375C36.9707 28.9265 37.6715 27.6992 39.2184 27.6992C40.6563 27.6992 41.2023 28.8011 41.2023 29.8851C41.2023 30.1182 41.175 30.3241 41.1569 30.4228H38.2903Z" fill="#323835"/>
<path fill-rule="evenodd" clip-rule="evenodd" d="M35.7891 26.5435V27.7977H36.7811V28.8011H35.7891V30.3868C35.7891 30.9153 35.9166 31.1573 36.3352 31.1573C36.5081 31.1573 36.6446 31.1393 36.7446 31.1214L36.7537 32.1516C36.5717 32.2233 36.2441 32.2681 35.8528 32.2681C35.4069 32.2681 35.0338 32.1157 34.8154 31.8919C34.5607 31.632 34.4333 31.211 34.4333 30.5928V28.8011H33.8418V27.7977H34.4333V26.8481L35.7891 26.5435Z" fill="#323835"/>
<path fill-rule="evenodd" clip-rule="evenodd" d="M30.4097 30.987C30.6645 31.1393 31.1924 31.3185 31.6018 31.3185C32.0205 31.3185 32.1934 31.1751 32.1934 30.9512C32.1934 30.7273 32.0569 30.6197 31.5382 30.4496C30.6191 30.145 30.2641 29.6522 30.2732 29.1325C30.2732 28.3174 30.9831 27.6992 32.0842 27.6992C32.6029 27.6992 33.067 27.8156 33.34 27.9501L33.0942 28.8907C32.894 28.7832 32.5118 28.6399 32.1296 28.6399C31.793 28.6399 31.6018 28.7742 31.6018 28.9982C31.6018 29.2043 31.7747 29.3118 32.3208 29.4998C33.1671 29.7866 33.522 30.2077 33.5311 30.8527C33.5311 31.6679 32.8758 32.2682 31.6018 32.2682C31.0194 32.2682 30.5007 32.1426 30.1641 31.9635L30.4097 30.987Z" fill="#323835"/>
<path fill-rule="evenodd" clip-rule="evenodd" d="M29.6451 30.7722C29.6451 31.3455 29.6632 31.8115 29.6815 32.1787H28.4803L28.4165 31.5606H28.3893C28.2163 31.8294 27.7976 32.2773 26.9969 32.2773C26.0959 32.2773 25.4316 31.7218 25.4316 30.3691V27.7979H26.824V30.1541C26.824 30.79 27.0333 31.1753 27.5157 31.1753C27.8978 31.1753 28.1162 30.9155 28.2072 30.7005C28.2437 30.6199 28.2527 30.5123 28.2527 30.4049V27.7979H29.6451V30.7722Z" fill="#323835"/>
<path fill-rule="evenodd" clip-rule="evenodd" d="M22.1106 29.2401C22.1106 28.5951 22.0924 28.1741 22.0742 27.7978H23.2663L23.3118 28.6041H23.3482C23.5758 27.9681 24.1217 27.6992 24.5493 27.6992C24.6768 27.6992 24.7405 27.6992 24.8407 27.7172V28.9983C24.7405 28.9804 24.6223 28.9624 24.4676 28.9624C23.958 28.9624 23.6121 29.2313 23.5211 29.6523C23.503 29.7418 23.4937 29.8493 23.4937 29.9569V32.1787H22.1106V29.2401Z" fill="#323835"/>
<path fill-rule="evenodd" clip-rule="evenodd" d="M19.0965 27.2873H17.4492V26.1406H22.1632V27.2873H20.4887V32.1788H19.0965V27.2873Z" fill="#323835"/>
<path fill-rule="evenodd" clip-rule="evenodd" d="M12.97 33.6363H6.06836V26.9421C6.06836 25.6174 7.17555 24.5435 8.54125 24.5435H15.4429V31.2377C15.4429 32.5624 14.3357 33.6363 12.97 33.6363Z" fill="#80C600"/>
<path fill-rule="evenodd" clip-rule="evenodd" d="M13.5247 26.4096C13.4482 26.3342 13.3229 26.3342 13.2464 26.4096L9.76786 29.834C9.6913 29.9094 9.56612 29.9094 9.48967 29.834L8.22318 28.5873C8.14674 28.5119 8.02144 28.5119 7.94487 28.5873L7.11007 29.4091C7.03362 29.4845 7.03362 29.6077 7.11007 29.6831L9.48967 32.0256C9.56612 32.1009 9.6913 32.1009 9.76786 32.0256L14.3596 27.5054C14.436 27.43 14.436 27.3068 14.3596 27.2314L13.5247 26.4096Z" fill="#FEFEFE"/>
<path d="M2.86523 37.3149H65.8359V45.8293C65.8359 46.1232 65.597 46.3614 65.3023 46.3614H3.39888C3.10416 46.3614 2.86523 46.1232 2.86523 45.8293V37.3149Z" fill="#F2F3F3"/>
<path opacity="0.6" d="M8.07399 40.3798C7.71614 40.3798 7.43472 40.5063 7.22974 40.7592C7.02475 41.0121 6.92226 41.3612 6.92226 41.8063C6.92226 42.2723 7.02085 42.6248 7.21801 42.8639C7.41518 43.1029 7.7005 43.2225 8.07399 43.2225C8.23554 43.2225 8.39189 43.2064 8.54302 43.1744C8.69415 43.1423 8.85136 43.1012 9.01465 43.051V43.5836C8.71586 43.6962 8.37712 43.7525 7.99842 43.7525C7.4408 43.7525 7.0126 43.5841 6.71381 43.2471C6.41502 42.9102 6.26562 42.4282 6.26562 41.8011C6.26562 41.4062 6.33815 41.0606 6.4832 40.7644C6.62825 40.4682 6.83801 40.2413 7.11248 40.0836C7.38695 39.926 7.70919 39.8472 8.0792 39.8472C8.46832 39.8472 8.82791 39.9286 9.15797 40.0914L8.93387 40.6085C8.80533 40.5479 8.6694 40.4946 8.52608 40.4487C8.38277 40.4028 8.23207 40.3798 8.07399 40.3798ZM12.6147 43.7006H10.4598V39.9017H12.6147V40.4266H11.0826V41.4608H12.5183V41.9804H11.0826V43.1731H12.6147V43.7006ZM14.6853 41.6686H15.1178C15.4079 41.6686 15.6181 41.6149 15.7484 41.5075C15.8787 41.4001 15.9438 41.2408 15.9438 41.0294C15.9438 40.8146 15.8735 40.6605 15.7328 40.5669C15.5921 40.4734 15.3801 40.4266 15.097 40.4266H14.6853V41.6686ZM14.6853 42.1831V43.7006H14.0625V39.9017H15.1387C15.6303 39.9017 15.9942 39.9935 16.2305 40.1772C16.4667 40.3608 16.5849 40.6379 16.5849 41.0086C16.5849 41.4815 16.3382 41.8185 15.8448 42.0194L16.921 43.7006H16.2122L15.3002 42.1831H14.6853ZM19.4137 43.7006H18.7909V40.4344H17.6704V39.9017H20.5341V40.4344H19.4137V43.7006ZM21.7422 43.7006V39.9017H22.3649V43.7006H21.7422ZM24.6127 43.7006H23.9951V39.9017H26.1448V40.4266H24.6127V41.6141H26.0484V42.1415H24.6127V43.7006ZM27.4597 43.7006V39.9017H28.0825V43.7006H27.4597ZM31.8676 43.7006H29.7126V39.9017H31.8676V40.4266H30.3354V41.4608H31.7712V41.9804H30.3354V43.1731H31.8676V43.7006ZM36.4135 41.7648C36.4135 42.3918 36.2389 42.8712 35.8898 43.203C35.5406 43.5347 35.0377 43.7006 34.3811 43.7006H33.3153V39.9017H34.4931C35.0994 39.9017 35.571 40.0646 35.908 40.3902C36.245 40.7159 36.4135 41.1741 36.4135 41.7648ZM35.7569 41.7856C35.7569 40.8761 35.3304 40.4214 34.4775 40.4214H33.9381V43.1783H34.3811C35.2983 43.1783 35.7569 42.714 35.7569 41.7856ZM42.0633 42.669C42.0633 43.0068 41.9408 43.2718 41.6959 43.4641C41.451 43.6564 41.1131 43.7525 40.6823 43.7525C40.2515 43.7525 39.8988 43.6858 39.6244 43.5524V42.9652C39.7981 43.0466 39.9827 43.1107 40.1781 43.1575C40.3735 43.2043 40.5555 43.2277 40.724 43.2277C40.9707 43.2277 41.1526 43.1809 41.2699 43.0873C41.3871 42.9938 41.4458 42.8682 41.4458 42.7106C41.4458 42.5685 41.3919 42.4481 41.2842 42.3494C41.1765 42.2507 40.9542 42.1337 40.6171 41.9986C40.2697 41.8583 40.0248 41.6981 39.8823 41.5179C39.7399 41.3378 39.6687 41.1212 39.6687 40.8683C39.6687 40.5513 39.7816 40.3019 40.0074 40.12C40.2332 39.9381 40.5364 39.8472 40.9168 39.8472C41.2816 39.8472 41.6447 39.9269 42.006 40.0862L41.808 40.5929C41.4692 40.4509 41.167 40.3798 40.9012 40.3798C40.6997 40.3798 40.5468 40.4236 40.4426 40.5111C40.3383 40.5985 40.2862 40.7142 40.2862 40.8579C40.2862 40.9567 40.3071 41.0411 40.3488 41.1113C40.3904 41.1814 40.4591 41.2477 40.5546 41.3101C40.6502 41.3724 40.8221 41.4547 41.0705 41.5569C41.3502 41.673 41.5552 41.7812 41.6855 41.8817C41.8158 41.9822 41.9113 42.0956 41.9721 42.2221C42.0329 42.3485 42.0633 42.4975 42.0633 42.669ZM45.58 43.7006H43.4251V39.9017H45.58V40.4266H44.0479V41.4608H45.4836V41.9804H44.0479V43.1731H45.58V43.7006ZM48.6486 40.3798C48.2907 40.3798 48.0093 40.5063 47.8043 40.7592C47.5993 41.0121 47.4968 41.3612 47.4968 41.8063C47.4968 42.2723 47.5954 42.6248 47.7926 42.8639C47.9897 43.1029 48.2751 43.2225 48.6486 43.2225C48.8101 43.2225 48.9665 43.2064 49.1176 43.1744C49.2687 43.1423 49.4259 43.1012 49.5892 43.051V43.5836C49.2904 43.6962 48.9517 43.7525 48.573 43.7525C48.0154 43.7525 47.5872 43.5841 47.2884 43.2471C46.9896 42.9102 46.8402 42.4282 46.8402 41.8011C46.8402 41.4062 46.9127 41.0606 47.0578 40.7644C47.2028 40.4682 47.4126 40.2413 47.687 40.0836C47.9615 39.926 48.2838 39.8472 48.6538 39.8472C49.0429 39.8472 49.4025 39.9286 49.7325 40.0914L49.5084 40.6085C49.3799 40.5479 49.244 40.4946 49.1006 40.4487C48.9573 40.4028 48.8066 40.3798 48.6486 40.3798ZM54.0205 39.9017V42.3598C54.0205 42.6404 53.9602 42.886 53.8394 43.0964C53.7187 43.3069 53.5441 43.4689 53.3157 43.5823C53.0873 43.6958 52.8141 43.7525 52.4962 43.7525C52.0237 43.7525 51.6563 43.6278 51.394 43.3784C51.1317 43.1289 51.0005 42.7859 51.0005 42.3494V39.9017H51.6259V42.3052C51.6259 42.6188 51.6988 42.85 51.8448 42.999C51.9907 43.148 52.2148 43.2225 52.517 43.2225C53.1042 43.2225 53.3978 42.915 53.3978 42.3V39.9017H54.0205ZM56.2422 41.6686H56.6748C56.9649 41.6686 57.175 41.6149 57.3053 41.5075C57.4356 41.4001 57.5008 41.2408 57.5008 41.0294C57.5008 40.8146 57.4304 40.6605 57.2897 40.5669C57.149 40.4734 56.9371 40.4266 56.6539 40.4266H56.2422V41.6686ZM56.2422 42.1831V43.7006H55.6194V39.9017H56.6956C57.1872 39.9017 57.5511 39.9935 57.7874 40.1772C58.0236 40.3608 58.1418 40.6379 58.1418 41.0086C58.1418 41.4815 57.8951 41.8185 57.4017 42.0194L58.4779 43.7006H57.7691L56.8572 42.1831H56.2422ZM61.8096 43.7006H59.6547V39.9017H61.8096V40.4266H60.2775V41.4608H61.7132V41.9804H60.2775V43.1731H61.8096V43.7006Z" fill="#323835"/>
</svg>
