<svg width="65" height="19" viewBox="0 0 65 19" fill="none" xmlns="http://www.w3.org/2000/svg">
<path d="M64.083 14.827C63.6386 14.8245 63.1955 14.8206 62.751 14.8181C62.689 14.8181 62.6283 14.8181 62.5456 14.8181C62.4281 14.0667 62.3131 13.3217 62.1955 12.5678C61.0573 12.5678 59.9269 12.5678 58.7848 12.5678C58.3495 13.3089 57.9102 14.0577 57.4658 14.813C56.4284 14.813 55.3922 14.813 54.3277 14.813C54.3019 14.6568 54.2502 14.5019 54.2554 14.3483C54.2696 13.9195 54.307 13.492 54.3342 13.0631C54.351 12.7982 54.3807 12.5319 54.3807 12.267C54.3794 11.7229 54.1275 11.4337 53.5848 11.3505C53.382 11.3185 53.174 11.3069 52.9673 11.3057C52.3369 11.3005 51.7064 11.3031 51.0759 11.3044C51.0553 11.3044 51.0346 11.3069 50.9945 11.3108C50.7504 12.4756 50.5049 13.643 50.2607 14.8117C49.7453 14.8117 49.2453 14.8117 48.7285 14.8117C49.3228 11.97 49.9145 9.13984 50.5101 6.29177C50.5617 6.29177 50.6108 6.29177 50.6612 6.29177C51.8498 6.29177 53.0384 6.28537 54.2269 6.29433C54.7127 6.29817 55.1946 6.34425 55.6558 6.52089C56.3043 6.7705 56.7294 7.21339 56.8702 7.89437C56.9942 8.49598 56.949 9.08608 56.679 9.64673C56.4335 10.1562 56.0124 10.4672 55.4866 10.6516C55.3315 10.7066 55.17 10.7424 54.993 10.7924C55.0589 10.8244 55.1158 10.8512 55.1726 10.8807C55.5977 11.1009 55.8237 11.4631 55.8625 11.9226C55.8909 12.2618 55.869 12.6062 55.8548 12.9479C55.8354 13.387 55.7915 13.8248 55.7772 14.2638C55.7721 14.4161 55.8263 14.571 55.8535 14.7246C55.869 14.7259 55.8845 14.7272 55.9 14.7297C57.5988 11.9188 59.299 9.10784 60.9979 6.29817C61.5276 6.29817 62.0482 6.29817 62.5857 6.29817C62.6231 6.49785 62.6632 6.69754 62.6981 6.89722C62.8363 7.68316 62.972 8.46782 63.1089 9.25376C63.2445 10.0295 63.3789 10.8052 63.5133 11.5809C63.6864 12.5729 63.8582 13.5649 64.0339 14.5569C64.0417 14.5979 64.0688 14.635 64.0869 14.6747C64.083 14.7246 64.083 14.7758 64.083 14.827ZM51.2374 10.1626C51.2852 10.1664 51.3059 10.169 51.3253 10.169C52.0384 10.169 52.7503 10.1792 53.4634 10.1639C53.7399 10.1587 54.0189 10.1203 54.2877 10.0576C54.6571 9.97186 54.9724 9.77986 55.1881 9.45601C55.391 9.15136 55.4439 8.81215 55.4103 8.45758C55.3742 8.07997 55.1817 7.80861 54.8212 7.66396C54.5344 7.54748 54.2321 7.51676 53.9285 7.51548C53.267 7.51164 52.6069 7.5142 51.9454 7.5142C51.895 7.5142 51.8446 7.5142 51.7878 7.5142C51.603 8.40126 51.4209 9.27424 51.2374 10.1626ZM61.5147 7.83165C61.503 7.82909 61.4914 7.82781 61.4811 7.82525C60.8028 9.0144 60.1233 10.2048 59.4398 11.4029C60.3222 11.4029 61.1749 11.4029 62.0353 11.4029C61.8596 10.2035 61.6878 9.01824 61.5147 7.83165Z" fill="white"/>
<path d="M13.2842 12.9634C13.664 13.3001 14.0439 13.638 14.425 13.9734C15.0606 14.5315 15.6988 15.0883 16.3357 15.6464C16.4585 15.7539 16.5799 15.8627 16.7169 15.9843C13.4548 16.9366 10.2133 17.8826 6.96025 18.8324C6.80135 18.6621 6.64115 18.4906 6.48095 18.3178C5.55464 17.3181 4.62963 16.3171 3.70332 15.3174C2.92041 14.4713 2.13751 13.6252 1.3546 12.7804C1.12851 12.5359 0.899844 12.2927 0.671174 12.052C0.649211 12.0277 0.611745 12.0175 0.582031 12.0008C0.582031 11.9803 0.582031 11.9599 0.582031 11.9394C0.684093 11.9253 0.787447 11.9202 0.886925 11.8971C1.63236 11.7282 2.37651 11.5567 3.12195 11.3851C3.24598 11.357 3.37 11.3237 3.49403 11.293C3.5457 11.3608 3.60255 11.4248 3.64906 11.4952C3.76662 11.6719 3.87902 11.8523 3.994 12.0303C3.52245 12.1404 3.0509 12.2504 2.58064 12.3605C2.4592 12.3887 2.33775 12.4194 2.19435 12.454C3.88677 14.2819 5.55723 16.0841 7.22381 17.8839C9.82316 17.1248 12.407 16.3709 15.0025 15.6131C14.9792 15.5849 14.9676 15.5619 14.9495 15.5465C14.4211 15.0832 13.8927 14.6211 13.3643 14.1577C13.1111 13.935 12.8605 13.7071 12.6085 13.4818C12.7662 13.3551 12.9264 13.2309 13.0827 13.1017C13.1395 13.0543 13.1847 12.9967 13.2364 12.9429C13.2519 12.9506 13.2674 12.957 13.2842 12.9634Z" fill="#03559C"/>
<path d="M3.99512 12.0313C3.88014 11.8521 3.76775 11.6729 3.65018 11.4963C3.60367 11.4259 3.54683 11.3606 3.49515 11.294C3.36467 11.0943 3.23677 10.8921 3.10241 10.6937C2.76134 10.1906 2.41769 9.69015 2.07533 9.18966C2.0637 9.17302 2.05853 9.15254 2.05078 9.13334C2.05982 9.12438 2.06887 9.11541 2.07791 9.10645C2.35309 9.2447 2.62956 9.38038 2.90216 9.52119C3.55329 9.86039 4.20312 10.2022 4.85425 10.5439C5.00928 10.6246 5.16302 10.7065 5.31935 10.7846C5.36844 10.8089 5.42399 10.8217 5.47696 10.8409C5.51184 10.8703 5.54285 10.9062 5.5829 10.9267C5.76377 11.0227 5.94593 11.1161 6.12938 11.2057C6.28441 11.2812 6.44203 11.3529 6.59964 11.4259C6.62031 11.4476 6.63581 11.4771 6.66036 11.4899C6.96784 11.6512 7.27661 11.8086 7.58409 11.9686C7.91869 11.6396 8.24943 11.3158 8.57887 10.9907C8.83854 10.7359 9.1008 10.4825 9.3579 10.2252C9.46771 10.1151 9.56719 9.9948 9.67183 9.87959C9.78681 9.77847 9.90696 9.68375 10.0155 9.57751C11.1873 8.41524 12.3577 7.25169 13.5282 6.08941C14.6664 4.96042 15.8046 3.83143 16.9428 2.70372C17.7231 1.93058 18.5034 1.16 19.2837 0.388141C19.3044 0.36766 19.329 0.34974 19.3768 0.310059C19.3625 0.36638 19.3625 0.395821 19.347 0.417581C18.7269 1.30721 18.1042 2.19555 17.4854 3.08517C16.8562 3.9876 16.2309 4.89258 15.603 5.79501C15.0424 6.60015 14.4778 7.40401 13.9171 8.21043C13.3835 8.96949 12.8551 9.73623 12.3254 10.5004C12.0916 10.8371 11.8578 11.1737 11.6239 11.5091C11.5826 11.5654 11.5374 11.6192 11.4999 11.6768C11.3823 11.8521 11.2674 12.0301 11.1524 12.2067C10.9638 12.4755 10.7738 12.7443 10.5852 13.0131C10.5697 13.0272 10.5516 13.0374 10.5413 13.0541C10.2454 13.4765 9.95089 13.9002 9.65633 14.3226C9.12018 15.0932 8.58403 15.8638 8.04918 16.6356C7.93032 16.8071 7.8218 16.9838 7.70811 17.1579C7.66935 17.1937 7.63189 17.2308 7.59055 17.2692C7.53241 17.195 7.48202 17.1323 7.43293 17.0708C7.41872 17.0388 7.40968 17.0043 7.38901 16.9748C7.18101 16.6715 6.96913 16.3694 6.76113 16.066C6.10871 15.1085 5.45758 14.1498 4.80516 13.1923C4.65659 12.9734 4.5106 12.7533 4.35945 12.5369C4.24059 12.3654 4.11657 12.199 3.99512 12.0313Z" fill="white"/>
<path d="M48.6149 10.3314C48.2919 11.838 47.9715 13.3254 47.6524 14.8128C47.3243 14.8128 47.0155 14.8128 46.6874 14.8128C46.6874 14.5223 46.6874 14.2355 46.6874 13.9283C46.5362 14.0666 46.4122 14.1933 46.2752 14.3059C45.6345 14.8333 44.8929 15.0599 44.0635 15.0036C43.4601 14.9626 42.8788 14.832 42.3452 14.5415C41.853 14.2739 41.4512 13.9066 41.1515 13.4317C40.6618 12.6547 40.5326 11.7984 40.5792 10.8998C40.6166 10.1676 40.7549 9.45717 41.0507 8.78516C41.4628 7.84817 42.1088 7.11343 43.0261 6.62574C43.8426 6.19181 44.7107 6.04588 45.6293 6.11501C46.2016 6.15853 46.7533 6.26989 47.2662 6.52974C48.0555 6.92911 48.5503 7.55248 48.6976 8.42931C48.7286 8.61491 48.7454 8.80308 48.77 9.00404C48.2532 9.00404 47.7558 9.00404 47.2494 9.00404C47.2235 8.73908 47.1757 8.48051 47.0543 8.23858C46.8682 7.87121 46.5724 7.62545 46.1926 7.48976C45.5311 7.25296 44.8593 7.24144 44.1914 7.47696C43.7495 7.63313 43.3852 7.90193 43.0803 8.25266C42.5377 8.87732 42.2612 9.6223 42.1398 10.4198C42.0468 11.0278 42.0287 11.6422 42.216 12.2451C42.3995 12.8403 42.747 13.305 43.3258 13.5674C43.8335 13.7978 44.371 13.8349 44.9174 13.744C45.907 13.5802 46.4845 12.9465 46.8372 12.0672C46.9057 11.8969 46.9535 11.7177 47.0104 11.5436C47.0181 11.5206 47.0168 11.495 47.0207 11.4553C46.2442 11.4553 45.4755 11.4553 44.6784 11.4553C44.7598 11.07 44.836 10.7026 44.9149 10.3289C46.1486 10.3314 47.3695 10.3314 48.6149 10.3314Z" fill="white"/>
<path d="M40.4095 9.91767C40.4017 10.7907 40.2622 11.6393 39.8992 12.4393C39.5516 13.2048 39.0426 13.8423 38.323 14.3018C37.3709 14.9098 36.3322 15.1057 35.2159 14.9674C34.7444 14.9085 34.3 14.7805 33.8788 14.5629C33.2807 14.2544 32.8246 13.8026 32.5094 13.215C32.1386 12.5225 32.0288 11.7776 32.0624 11.0031C32.0895 10.3913 32.1761 9.79223 32.3737 9.21109C32.6424 8.42259 33.0675 7.73649 33.7057 7.18352C34.1876 6.76495 34.7315 6.46414 35.3426 6.2875C36.119 6.06221 36.9045 6.03405 37.6977 6.21837C38.3734 6.37582 38.9535 6.69071 39.4328 7.18992C39.8733 7.64945 40.1459 8.19603 40.2971 8.8066C40.3875 9.17141 40.4108 9.54262 40.4095 9.91767ZM33.5636 11.19C33.5571 11.6073 33.6088 12.0169 33.7574 12.4099C33.8982 12.7862 34.1217 13.105 34.446 13.352C34.7354 13.5722 35.0648 13.6951 35.4214 13.7488C36.2159 13.8704 36.9394 13.7168 37.5647 13.1933C38.0168 12.8144 38.3256 12.3357 38.5375 11.7955C38.8695 10.9455 38.9974 10.0662 38.8411 9.16117C38.7003 8.34451 38.2959 7.71857 37.4678 7.44593C36.8321 7.236 36.1926 7.26032 35.5738 7.51633C34.8478 7.81714 34.3697 8.37651 34.039 9.06517C33.7173 9.73591 33.5739 10.4489 33.5636 11.19Z" fill="white"/>
<path d="M30.0828 11.8381C30.5725 11.8381 31.0582 11.8381 31.5737 11.8381C31.5104 12.0544 31.4626 12.263 31.3903 12.4614C31.2133 12.9504 30.9704 13.4048 30.6229 13.7978C30.181 14.297 29.6423 14.6452 28.9976 14.8385C28.2793 15.0535 27.552 15.0586 26.8233 14.9178C26.2213 14.8013 25.6748 14.5607 25.2045 14.1626C24.6968 13.7325 24.357 13.1962 24.1684 12.5626C23.8919 11.6345 23.9514 10.7027 24.1477 9.77081C24.2718 9.17944 24.4953 8.62902 24.8221 8.11829C25.3156 7.34899 25.9874 6.78961 26.8337 6.43888C27.5222 6.15344 28.2406 6.05743 28.9847 6.11247C29.4731 6.14832 29.9433 6.24688 30.389 6.4504C30.9174 6.69233 31.3412 7.05202 31.6254 7.56147C31.8954 8.04405 31.9897 8.56502 31.982 9.12184C31.4768 9.12184 30.9794 9.12184 30.4924 9.12184C30.4562 8.91063 30.4368 8.70198 30.3839 8.50102C30.2366 7.94036 29.8671 7.57683 29.3103 7.41939C28.2522 7.12114 27.1773 7.43987 26.4758 8.27445C26.012 8.82743 25.7471 9.46616 25.6012 10.1625C25.4823 10.7296 25.4539 11.3017 25.543 11.8713C25.6567 12.5984 25.9926 13.1987 26.6838 13.5392C27.1889 13.7888 27.7302 13.8413 28.2832 13.7415C29.0041 13.6096 29.4666 13.1552 29.7831 12.5331C29.8981 12.3142 29.9821 12.0774 30.0828 11.8381Z" fill="white"/>
<path d="M23.1932 11.8731C21.533 11.8731 19.8857 11.8731 18.2074 11.8731C18.2022 12.0997 18.1829 12.3173 18.1932 12.5336C18.2152 13.0086 18.3405 13.4502 18.6751 13.8125C18.9051 14.0621 19.188 14.2131 19.5201 14.2835C19.8482 14.3527 20.1738 14.3552 20.502 14.2848C20.9852 14.1824 21.3831 13.9366 21.6777 13.5526C21.856 13.3196 21.9852 13.0495 22.1467 12.7781C22.3586 12.7781 22.6054 12.7781 22.878 12.7781C22.8431 12.8818 22.8121 12.9753 22.7798 13.0674C22.6105 13.5488 22.3483 13.9712 21.9632 14.3117C21.5472 14.6791 21.055 14.8814 20.5046 14.9556C20.1377 15.0055 19.772 15.0042 19.409 14.9466C18.5059 14.8007 17.8043 14.2746 17.5601 13.3759C17.1932 12.0267 17.4503 10.7658 18.2617 9.63162C18.7759 8.91348 19.4917 8.47568 20.3818 8.35663C20.9038 8.28751 21.4232 8.31695 21.9167 8.52817C22.5744 8.80979 22.9671 9.3116 23.1519 9.98621C23.2785 10.4483 23.254 10.9194 23.2307 11.3892C23.2217 11.5492 23.2062 11.7067 23.1932 11.8731ZM22.4645 11.2126C22.4645 10.9898 22.4775 10.7799 22.462 10.5738C22.4245 10.0886 22.2604 9.65466 21.8638 9.34232C21.4813 9.04021 21.0343 8.95701 20.555 8.99157C20.1183 9.02357 19.7307 9.18102 19.3948 9.44601C18.918 9.82108 18.6105 10.319 18.4128 10.8849C18.3767 10.9873 18.356 11.0961 18.325 11.2126C19.7113 11.2126 21.0718 11.2126 22.4645 11.2126Z" fill="#04559C"/>
<path d="M6.59736 11.4242C6.44102 11.3513 6.28211 11.2809 6.12707 11.2041C5.9436 11.1145 5.76143 11.0211 5.58055 10.9251C5.54179 10.9046 5.50949 10.8675 5.47461 10.8394C6.17487 10.6755 6.87643 10.5117 7.57669 10.3492C8.22269 10.1982 8.86998 10.0484 9.51598 9.89999C9.56637 9.88847 9.61676 9.88463 9.66844 9.87695C9.56378 9.99213 9.4643 10.1124 9.35448 10.2225C9.09737 10.4797 8.8351 10.7331 8.57541 10.9878C8.35447 11.0339 8.13483 11.0774 7.91519 11.126C7.47591 11.2246 7.03664 11.3244 6.59736 11.4242Z" fill="#04559C"/>
<path d="M13.2847 12.9634C13.2692 12.957 13.2524 12.9506 13.2369 12.9442C12.9578 12.701 12.6801 12.4577 12.401 12.2145C12.3984 12.2056 12.3971 12.1966 12.3945 12.1876C12.4798 12.1569 12.5677 12.1313 12.6503 12.0942C13.4359 11.746 14.2201 11.3965 15.0044 11.0471C15.5728 10.7936 16.14 10.5389 16.7085 10.2854C16.7201 10.2803 16.7369 10.288 16.777 10.2918C16.6039 10.4262 16.4488 10.5478 16.2912 10.6681C15.5741 11.216 14.8571 11.7639 14.1413 12.3105C13.8558 12.5294 13.569 12.7458 13.2847 12.9634Z" fill="#C4C8CC"/>
<path d="M12.3949 12.1876C12.3975 12.1965 12.3988 12.2055 12.4014 12.2144C12.1276 12.3386 11.855 12.464 11.5812 12.5881C11.5734 12.5869 11.5657 12.5856 11.5579 12.5869C11.4223 12.4602 11.288 12.3335 11.1523 12.2068C11.2686 12.0302 11.3836 11.8535 11.4998 11.6769C11.5386 11.6193 11.5825 11.5656 11.6238 11.5093C11.8809 11.7358 12.1379 11.9623 12.3949 12.1876Z" fill="#03559C"/>
<path d="M2.05038 9.13272C2.03358 9.12497 2.01679 9.11851 2 9.11076C2.00775 9.10043 2.0155 9.09139 2.02325 9.08105C2.04133 9.0888 2.05942 9.09785 2.0775 9.1056C2.06846 9.11464 2.05942 9.12368 2.05038 9.13272Z" fill="white"/>
<path d="M12.6083 13.4826C12.5889 13.4801 12.5695 13.4762 12.5514 13.4737C12.5075 13.425 12.4675 13.3726 12.4184 13.3291C12.1407 13.0808 11.8604 12.8351 11.5801 12.5881C11.8539 12.4639 12.1265 12.3385 12.4003 12.2144C12.6793 12.4575 12.957 12.7007 13.236 12.9438C13.1856 12.9976 13.1391 13.0565 13.0823 13.1025C12.926 13.2318 12.7671 13.3559 12.6083 13.4826Z" fill="#135186"/>
<path d="M11.5811 12.5882C11.8602 12.8353 12.1405 13.081 12.4196 13.3294C12.4687 13.3729 12.5088 13.4254 12.5527 13.474C12.4222 13.5867 12.2969 13.707 12.1612 13.812C11.5682 14.2664 10.97 14.717 10.3744 15.1689C9.64052 15.727 8.90667 16.2852 8.17281 16.8433C8.0462 16.9393 7.92087 17.0366 7.79296 17.13C7.771 17.1467 7.73741 17.1492 7.70898 17.1582C7.82268 16.9841 7.93121 16.8074 8.05007 16.6359C8.58367 15.864 9.12114 15.0934 9.65732 14.3227C9.95189 13.899 10.2465 13.4766 10.5423 13.0542C10.554 13.0375 10.5721 13.0273 10.5863 13.0132C10.9106 12.8711 11.2348 12.729 11.5591 12.5869C11.5656 12.5869 11.5734 12.5869 11.5811 12.5882Z" fill="#C3C7CB"/>
<path d="M3.21875 12.707C3.47586 12.789 3.73555 12.8683 3.99137 12.9541C4.23426 13.0347 4.47328 13.1231 4.71618 13.2037C4.74202 13.2127 4.7769 13.1973 4.80662 13.1935C5.45778 14.1523 6.11024 15.1098 6.7627 16.0673C6.96942 16.372 7.18131 16.6728 7.39062 16.9762C7.41 17.0044 7.42033 17.0402 7.43454 17.0722C7.35315 17.0056 7.26529 16.9455 7.19294 16.87C6.94488 16.6127 6.70586 16.3464 6.45779 16.0891C5.9074 15.5169 5.35184 14.9485 4.80016 14.3776C4.36734 13.9295 3.93581 13.4802 3.50428 13.0283C3.4048 12.9247 3.31307 12.8146 3.21875 12.707Z" fill="#C3C7CB"/>
<path d="M3.21758 12.7075C3.21234 12.7022 3.20709 12.6983 3.22807 12.7166C3.2084 12.697 3.21365 12.7022 3.21758 12.7075Z" fill="#C3C7CB"/>
</svg>
