<svg width="68" height="68" viewBox="0 0 68 68" fill="none" xmlns="http://www.w3.org/2000/svg">
<path d="M24.2692 26.0131H54.2163C57.226 26.0163 59.7277 26.9633 61.8396 28.9018C63.9196 30.8181 64.9356 33.1031 64.9676 35.8869L65.3957 35.8838L64.9676 35.8806C64.9356 38.6104 63.9196 40.8668 61.8364 42.8149L61.8396 42.8117C59.7245 44.7502 57.2196 45.7227 54.2163 45.7258H24.2692C24.0328 45.7258 23.8411 45.9165 23.8411 46.1517C23.8411 46.3869 24.0328 46.5775 24.2692 46.5775H54.2163C57.4113 46.5807 60.1654 45.5161 62.4243 43.4377V43.4345C64.6576 41.3625 65.8047 38.8297 65.827 35.8869V35.8774C65.8047 32.8838 64.6608 30.3192 62.4211 28.2726C60.1622 26.191 57.4049 25.155 54.2131 25.1582H24.266C24.0296 25.1582 23.8379 25.3489 23.8379 25.5841C23.8411 25.8224 24.0328 26.0131 24.2692 26.0131ZM24.2692 26.0131H54.2163C57.226 26.0163 59.7277 26.9633 61.8396 28.9018C63.9196 30.8181 64.9356 33.1031 64.9676 35.8869L65.3957 35.8838L64.9676 35.8806C64.9356 38.6104 63.9196 40.8668 61.8364 42.8149L61.8396 42.8117C59.7245 44.7502 57.2196 45.7227 54.2163 45.7258H24.2692C24.0328 45.7258 23.8411 45.9165 23.8411 46.1517C23.8411 46.3869 24.0328 46.5775 24.2692 46.5775H54.2163C57.4113 46.5807 60.1654 45.5161 62.4243 43.4377V43.4345C64.6576 41.3625 65.8047 38.8297 65.827 35.8869V35.8774C65.8047 32.8838 64.6608 30.3192 62.4211 28.2726C60.1622 26.191 57.4049 25.155 54.2131 25.1582H24.266C24.0296 25.1582 23.8379 25.3489 23.8379 25.5841C23.8411 25.8224 24.0328 26.0131 24.2692 26.0131Z" fill="white"/>
<path fill-rule="evenodd" clip-rule="evenodd" d="M21.6107 25.7813C23.3264 26.7728 24.6843 28.1203 25.678 29.8014C26.6748 31.508 27.1732 33.4084 27.202 35.4709C27.1732 37.5619 26.6748 39.4624 25.678 41.1435C24.6811 42.8214 23.3264 44.1721 21.6107 45.1922C19.9237 46.1837 18.0418 46.6795 15.9075 46.7049C13.8308 46.6763 11.9201 46.1805 10.2332 45.1922C8.51744 44.1721 7.15955 42.8246 6.19145 41.1435C5.16585 39.4624 4.67062 37.5906 4.64186 35.4709C4.67062 33.4052 5.16904 31.508 6.19145 29.8014C7.15955 28.1203 8.51744 26.7728 10.2332 25.7813C11.9201 24.7898 13.8308 24.2686 15.9075 24.24C18.0131 24.2654 19.9237 24.7898 21.6107 25.7813ZM15.9107 21.9551C13.3931 21.9837 11.0958 22.5875 9.04781 23.7983C7.02855 25.0091 5.42145 26.633 4.17539 28.6447C2.95808 30.6817 2.34783 32.9666 2.32227 35.4709C2.35102 37.9751 2.95808 40.26 4.17539 42.2971C5.42145 44.3341 7.02536 45.9581 9.04781 47.1975C11.0958 48.3828 13.3931 48.9867 15.9107 49.0407C18.4572 49.0121 20.7544 48.4083 22.8024 47.1975C24.8505 45.9581 26.4831 44.3341 27.7004 42.2971C28.8922 40.26 29.528 37.9751 29.5535 35.4709C29.5248 32.9666 28.9177 30.6817 27.7004 28.6447C26.4831 26.6362 24.8505 25.0123 22.8024 23.7983C20.7544 22.5875 18.4572 21.9805 15.9107 21.9551Z" fill="white"/>
<path d="M32.9883 31.562H33.9276L34.9245 34.2887L35.9501 31.562H36.8607L35.3111 35.4423H34.5634L32.9883 31.562Z" fill="white"/>
<path d="M43.8089 32.4706H44.6683V35.4166H43.8089V32.4706ZM43.7801 31.3965H44.6651V32.1401H43.7801V31.3965ZM41.125 32.4706H41.9557V33.049C42.0388 32.8552 42.1762 32.6899 42.3136 32.5819C42.451 32.4452 42.6459 32.388 42.8951 32.4166V33.2969H42.8663C42.5628 33.2969 42.3391 33.3795 42.2018 33.5448C42.0356 33.71 41.9525 33.9865 41.9525 34.3424V35.4166H41.1218V32.4706H41.125ZM39.323 33.71C39.2943 33.5162 39.24 33.3795 39.1281 33.2429C39.0163 33.1316 38.8789 33.0776 38.7128 33.0776C38.5179 33.0776 38.3805 33.1316 38.2687 33.2429C38.1568 33.3795 38.0738 33.5193 38.0482 33.71H39.323ZM38.7703 35.4992C38.5754 35.4992 38.3549 35.4452 38.16 35.3625C37.9651 35.3085 37.799 35.1973 37.6616 35.0606C37.5242 34.924 37.4412 34.7842 37.3581 34.5935C37.275 34.3996 37.2207 34.1804 37.2207 33.9611C37.2207 33.7418 37.2495 33.548 37.3325 33.3541C37.4156 33.1602 37.4987 32.9982 37.6361 32.8583C37.7734 32.7217 37.914 32.6105 38.1057 32.5278C38.3006 32.4452 38.4923 32.4166 38.716 32.4166C38.9652 32.4166 39.1601 32.4706 39.3518 32.5532C39.5467 32.6359 39.6841 32.7471 39.7959 32.9092C39.9077 33.0458 39.9908 33.2111 40.0739 33.4049C40.1282 33.5988 40.1569 33.8181 40.1569 34.0119L40.1282 34.1232V34.2344H38.0802C38.1089 34.4282 38.192 34.5649 38.3294 34.6761C38.4668 34.7587 38.6073 34.8128 38.7991 34.8128C38.9364 34.8128 39.0483 34.7842 39.1856 34.7301C39.2687 34.7015 39.3805 34.6189 39.5179 34.5109L39.9876 34.924C39.8502 35.1178 39.6841 35.2545 39.4892 35.3371C39.2975 35.442 39.0483 35.4992 38.7703 35.4992Z" fill="white"/>
<path d="M47.2708 35.4709C46.9673 35.4709 46.6893 35.4169 46.3858 35.3057C46.1078 35.2231 45.8586 35.0578 45.6094 34.8385L46.1366 34.2602C46.3027 34.3968 46.4688 34.508 46.6637 34.5907C46.8586 34.6733 47.0503 34.7273 47.274 34.7273C47.4689 34.7273 47.6063 34.6987 47.6893 34.6161C47.7724 34.5621 47.8267 34.4794 47.8267 34.3682V34.203L47.6893 34.0917L47.4689 33.9805L47.0535 33.8438L46.5263 33.7072L46.111 33.4879L45.8618 33.1574C45.8075 33.0208 45.7787 32.8809 45.7787 32.6902V32.6616L45.8618 32.1945C45.9449 32.0578 46.0279 31.918 46.1653 31.8354C46.2771 31.7242 46.4145 31.6415 46.5807 31.5875C46.7468 31.5335 46.9385 31.5049 47.1334 31.5049C47.4114 31.5049 47.6606 31.5589 47.9098 31.6415C48.159 31.7242 48.3795 31.8354 48.5744 32.0006L48.1303 32.633L47.6031 32.3566C47.4369 32.2739 47.2708 32.2453 47.1046 32.2453C46.9385 32.2453 46.8267 32.2739 46.7436 32.3566C46.6605 32.4106 46.6062 32.4932 46.6062 32.5758V32.6044L46.6605 32.7697L46.7724 32.8809L47.0503 32.9922L47.4657 33.1034L47.9929 33.2972C48.1303 33.3513 48.2708 33.4339 48.3795 33.5165L48.5999 33.8184C48.6542 33.9551 48.683 34.0949 48.683 34.2602V34.2856C48.683 34.4794 48.6542 34.6447 48.5712 34.7813C48.5169 34.918 48.4338 35.0578 48.2932 35.1659C48.1558 35.2485 48.0152 35.3311 47.8235 35.3851C47.6574 35.4424 47.4625 35.4709 47.2708 35.4709Z" fill="white"/>
<path d="M49.758 32.4706H50.6172V35.4166H49.758V32.4706ZM49.7324 31.3965H50.6172V32.1401H49.7324V31.3965Z" fill="white"/>
<path d="M55.9591 32.4705H56.7898V32.8837L56.9559 32.7184L57.1508 32.5532L57.3713 32.4419L57.6493 32.4133C57.9816 32.4133 58.2308 32.5246 58.3969 32.7152C58.5918 32.9091 58.6749 33.157 58.6749 33.5129V35.4133H57.8154V33.7608C57.8154 33.5669 57.7867 33.4303 57.7036 33.319C57.6205 33.2364 57.4831 33.1824 57.317 33.1824C57.1508 33.1824 57.0135 33.2364 56.9304 33.319C56.8473 33.4303 56.793 33.5669 56.793 33.7608V35.4133H55.9623V32.4705H55.9591ZM53.3008 34.479L53.6044 34.425C53.6874 34.3964 53.7417 34.3709 53.8248 34.2883C53.8791 34.2343 53.9366 34.1517 53.9622 34.069C53.991 33.9864 54.0165 33.9038 54.0165 33.7926L53.9622 33.5161C53.9334 33.4334 53.8791 33.3508 53.8248 33.2968L53.6044 33.1601L53.3008 33.1061L53.0229 33.1601L52.8024 33.2968C52.7193 33.3508 52.665 33.4334 52.6363 33.5161L52.5819 33.7926C52.5819 34.0118 52.665 34.1771 52.8024 34.2883C52.943 34.425 53.1091 34.479 53.3008 34.479ZM53.2178 36.2968L52.5244 36.2142C52.2752 36.1855 52.0803 36.1029 51.8886 35.9949L52.1922 35.3625L52.6618 35.5817L53.189 35.6358C53.467 35.6358 53.6874 35.5817 53.8248 35.4419C53.9622 35.3053 54.0197 35.1114 54.0197 34.8349V34.6983C53.9079 34.8349 53.7705 34.9747 53.6331 35.0574C53.4957 35.14 53.3008 35.1686 53.0516 35.1686C52.8855 35.1686 52.7193 35.14 52.5532 35.086C52.4158 35.032 52.2752 34.9493 52.1378 34.8095C52.026 34.6983 51.9429 34.5616 51.8599 34.3964C51.7768 34.2025 51.748 34.0118 51.748 33.7894C51.748 33.5701 51.7768 33.3762 51.8599 33.211C51.9429 33.0171 52.026 32.8805 52.1378 32.7693C52.2752 32.6326 52.4158 32.55 52.5819 32.4928L53.0516 32.4102C53.3008 32.4102 53.4957 32.4642 53.6331 32.5468C53.7705 32.6294 53.9111 32.7121 54.0197 32.8487V32.4642H54.8504V34.7491C54.8504 35.2735 54.7386 35.658 54.4894 35.9059C54.352 36.0425 54.1571 36.1538 53.9622 36.2078L53.2178 36.2968Z" fill="white"/>
<path d="M35.1446 40.2883C34.841 40.2883 34.563 40.2343 34.2595 40.1231C33.9816 40.0405 33.7355 39.8752 33.4863 39.6559L34.0135 39.0775C34.1796 39.2142 34.3458 39.3254 34.5407 39.408C34.7356 39.4907 34.9273 39.5447 35.1509 39.5447C35.3458 39.5447 35.4832 39.5161 35.5663 39.4335C35.6494 39.3794 35.7037 39.2968 35.7037 39.1856V39.0203L35.5663 38.9091L35.3458 38.7979L34.9305 38.6612L34.4033 38.5246L33.988 38.3053L33.7387 37.9748C33.6844 37.8381 33.6557 37.6983 33.6557 37.5076V37.479L33.7387 37.0119C33.8218 36.8752 33.9049 36.7354 34.0423 36.6528C34.1541 36.5415 34.2915 36.4589 34.4576 36.4049C34.6238 36.3509 34.8187 36.3223 35.0104 36.3223C35.2883 36.3223 35.5375 36.3763 35.7868 36.4589C36.036 36.5415 36.2564 36.6528 36.4513 36.818L36.0072 37.4504L35.48 37.174C35.3139 37.0913 35.1477 37.0627 34.9816 37.0627C34.8155 37.0627 34.7036 37.0913 34.6238 37.174C34.5407 37.228 34.4864 37.3106 34.4864 37.3932V37.4218L34.5407 37.5871L34.6525 37.6983L34.9305 37.8095L35.3458 37.9208L35.873 38.1146C36.0104 38.1686 36.151 38.2513 36.2596 38.3339L36.4801 38.6358C36.5344 38.7725 36.5631 38.9123 36.5631 39.0775V39.1061C36.5631 39.3 36.5344 39.4652 36.4513 39.6019C36.397 39.7385 36.3139 39.8784 36.1734 39.9864C36.036 40.0691 35.8954 40.1517 35.7037 40.2057C35.5343 40.2597 35.3394 40.2883 35.1446 40.2883Z" fill="white"/>
<path d="M42.9798 40.3172C42.7594 40.3172 42.5645 40.2632 42.3696 40.1806C42.1747 40.0979 42.0086 39.9867 41.8712 39.8501C41.7338 39.7134 41.6507 39.5736 41.5676 39.3829C41.4846 39.1891 41.4303 38.9698 41.4303 38.7759C41.4303 38.5567 41.4846 38.3628 41.5676 38.1689C41.6507 37.9751 41.7338 37.813 41.8712 37.6732C42.0086 37.5365 42.1747 37.4253 42.3696 37.3427C42.5645 37.26 42.7562 37.2314 43.0054 37.2314C43.2834 37.2314 43.5038 37.2855 43.6987 37.3681C43.8936 37.4507 44.031 37.562 44.1684 37.724L43.67 38.2738C43.5869 38.1626 43.4751 38.08 43.3664 38.0259C43.2834 37.9719 43.146 37.9433 42.9798 37.9433L42.7019 37.9973L42.4814 38.1912L42.3153 38.4391L42.261 38.741V38.7696C42.261 38.8808 42.2897 38.9888 42.3153 39.0715C42.344 39.1827 42.3984 39.2653 42.4814 39.348C42.5357 39.4306 42.6188 39.4846 42.7019 39.5132C42.785 39.5418 42.8968 39.5672 43.0342 39.5672C43.1716 39.5672 43.2834 39.5386 43.3952 39.4846L43.6987 39.2653L44.1972 39.7611C44.0598 39.8977 43.8936 40.0376 43.6987 40.1456C43.507 40.26 43.2834 40.3172 42.9798 40.3172ZM39.657 38.5281C39.6283 38.3342 39.5739 38.1975 39.4621 38.0609C39.3503 37.9497 39.2129 37.8956 39.0468 37.8956C38.8519 37.8956 38.7145 37.9497 38.6027 38.0609C38.4908 38.1975 38.4078 38.3374 38.3822 38.5281H39.657ZM39.1043 40.3172C38.9094 40.3172 38.6889 40.2632 38.494 40.1806C38.2991 40.1265 38.133 40.0153 37.9956 39.8787C37.8582 39.742 37.7751 39.6022 37.6921 39.4115C37.609 39.2177 37.5547 38.9984 37.5547 38.7791C37.5547 38.5598 37.5834 38.366 37.6665 38.1721C37.7496 37.9783 37.8327 37.8162 37.97 37.6764C38.1074 37.5397 38.248 37.4285 38.4397 37.3459C38.6346 37.2632 38.8263 37.2346 39.05 37.2346C39.2992 37.2346 39.4941 37.2886 39.6858 37.3713C39.8807 37.4539 40.0181 37.5651 40.1299 37.7272C40.2417 37.8639 40.3248 38.0291 40.4079 38.223C40.4622 38.4168 40.4909 38.6361 40.4909 38.8299L40.4622 38.9412V39.0524H38.4141C38.4429 39.2463 38.526 39.3829 38.6634 39.4941C38.8008 39.5768 38.9413 39.6308 39.133 39.6308C39.2704 39.6308 39.3822 39.6022 39.5196 39.5482C39.6027 39.5196 39.7145 39.4369 39.8519 39.3289L40.3216 39.742C40.1842 39.9359 40.0181 40.0725 39.8232 40.1552C39.6315 40.26 39.3822 40.3172 39.1043 40.3172Z" fill="white"/>
<path d="M46.2176 40.2886C45.914 40.2886 45.6648 40.1805 45.4699 39.9867C45.3038 39.7928 45.2207 39.5449 45.2207 39.189V37.2886H46.0514V38.9411C46.0514 39.135 46.1057 39.2716 46.1888 39.3828C46.2719 39.4655 46.4093 39.5195 46.5754 39.5195C46.7128 39.5195 46.8534 39.4655 46.962 39.3828C47.0451 39.2716 47.0994 39.135 47.0994 38.9411V37.2886H47.9301V40.2345H47.0994V39.8214L46.9332 39.9867L46.7383 40.1519L46.5179 40.2631L46.2176 40.2886Z" fill="white"/>
<path d="M57.3452 39.5732C57.457 39.5732 57.5656 39.5446 57.6487 39.5192L57.8691 39.3539C57.9235 39.2713 57.981 39.1887 58.0065 39.106L58.0608 38.7755V38.7469L58.0065 38.4164L57.8691 38.1686L57.6487 38.0033C57.5656 37.9747 57.4538 37.9493 57.3452 37.9493L57.0672 38.0033L56.8467 38.1686L56.6806 38.4164C56.6518 38.4991 56.6263 38.6103 56.6263 38.7469V38.7755L56.6806 39.106C56.7093 39.1887 56.7637 39.2713 56.8467 39.3539L57.0672 39.5192L57.3452 39.5732ZM57.1503 40.2882C56.9554 40.2882 56.7924 40.2596 56.6231 40.1802C56.4857 40.1262 56.3451 40.0435 56.2077 39.9037C56.0703 39.7671 55.9873 39.6018 55.9042 39.4079C55.8211 39.2141 55.7924 39.0234 55.7924 38.7755V38.7469C55.7924 38.499 55.8211 38.2798 55.9042 38.0859C55.9873 37.8921 56.0703 37.7554 56.2077 37.6188C56.3195 37.4821 56.4569 37.3995 56.6231 37.3423C56.7892 37.2597 56.9554 37.2311 57.1503 37.2311C57.3707 37.2311 57.5656 37.2851 57.703 37.3677C57.8404 37.4503 57.981 37.533 58.0608 37.6696V36.2109H58.8916V40.231H58.0608V39.8179C57.9778 39.9546 57.8404 40.0658 57.703 40.1484C57.5656 40.2342 57.3739 40.2882 57.1503 40.2882ZM53.9968 38.5277C53.968 38.3338 53.9137 38.1972 53.8019 38.0605C53.69 37.9493 53.5527 37.8952 53.3865 37.8952C53.1916 37.8952 53.0542 37.9493 52.9424 38.0605C52.8306 38.1972 52.7475 38.337 52.7219 38.5277H53.9968ZM53.444 40.3168C53.2491 40.3168 53.0287 40.2628 52.8338 40.1802C52.6389 40.1262 52.4727 40.0149 52.3353 39.8783C52.198 39.7416 52.1149 39.6018 52.0318 39.4111C51.9487 39.2173 51.8944 38.998 51.8944 38.7787C51.8944 38.5594 51.9232 38.3656 52.0063 38.1717C52.0893 37.9779 52.1724 37.8158 52.3098 37.676C52.4472 37.5393 52.5878 37.4281 52.7795 37.3455C52.9744 37.2628 53.1661 37.2342 53.3897 37.2342C53.6389 37.2342 53.8338 37.2883 54.0255 37.3709C54.2204 37.4535 54.3578 37.5647 54.4696 37.7268C54.5814 37.8635 54.6645 38.0287 54.7476 38.2226C54.8019 38.4164 54.8307 38.6357 54.8307 38.8296L54.8019 38.9408V39.052H52.7539C52.7826 39.2459 52.8657 39.3825 53.0031 39.4937C53.1405 39.5764 53.2811 39.6304 53.4728 39.6304C53.6102 39.6304 53.722 39.6018 53.8594 39.5478C53.9424 39.5192 54.0543 39.4365 54.1917 39.3285L54.6613 39.7416C54.5239 39.9355 54.3578 40.0721 54.1629 40.1548C53.968 40.2596 53.7188 40.3168 53.444 40.3168ZM49.2617 37.2883H50.0924V37.8666C50.1755 37.6728 50.3129 37.5075 50.4535 37.3995C50.5909 37.2628 50.7857 37.2056 51.035 37.2342V38.1145H51.0062C50.7027 38.1145 50.479 38.1971 50.3416 38.3624C50.1755 38.5277 50.0924 38.8041 50.0924 39.1601V40.2342H49.2617V37.2883Z" fill="white"/>
<path fill-rule="evenodd" clip-rule="evenodd" d="M60.3352 24.7896H61.5238V25.066H61.1084V26.1938H60.7761V25.066H60.332V24.7896H60.3352ZM63.297 24.7896V26.1938H62.9647V25.2852L62.6037 25.8888H62.5494L62.1883 25.2852V26.1938H61.8561V24.7896H62.2139L62.6005 25.3964L62.9615 24.7896H63.297Z" fill="white"/>
<path fill-rule="evenodd" clip-rule="evenodd" d="M23.9905 28.9461H22.9649V29.9917H23.9905V28.9461ZM22.9681 26.3021H23.9937V27.319H22.9681V26.3021ZM25.6232 23.604H24.572V22.5839H25.6232V23.604ZM27.6712 21.4843H29.6905V20.3848H27.6712V23.6072H25.6232V24.6496H23.8787V25.3646H22.9649V26.3021H21.8562V27.926H20.8051V28.943H20.1118V29.9885H19.3354C17.7858 32.2734 16.5685 34.5298 15.6802 36.8147C13.6865 34.034 11.8334 32.3815 10.1177 31.8317C9.64802 31.6951 9.31574 31.8031 9.12084 32.2162C8.92594 32.6294 9.09209 33.1537 9.67358 33.7575C11.4181 35.658 13.022 38.356 14.4885 41.7977C14.709 42.3475 15.2074 42.6526 16.0093 42.7321C16.757 42.7861 17.2554 42.5128 17.4759 41.9058C18.5558 39.0711 19.8018 36.6463 21.2396 34.5838V33.3984H22.0703V32.3783H22.9553V31.1389H23.9809V29.9822H25.0321V28.9366H25.8628V27.6718H26.7766V26.8169H27.6616V24.6496H28.684V23.604H29.8758V22.5585H28.684V23.604H27.6616V24.6496H26.636V25.6697H25.6136V24.6496H26.636V21.4843H27.6712Z" fill="white"/>
<path d="M28.694 21.4844H27.6719V22.5583H28.694V21.4844Z" fill="white"/>
<path d="M23.9941 26.3022H22.9688V27.3189H23.9941V26.3022Z" fill="white"/>
<path d="M31.9658 20.3848H30.8574V21.4841H31.9658V20.3848Z" fill="white"/>
<path d="M30.8826 20.3847V19.2822H29.7773V20.3847" fill="white"/>
<path d="M31.9658 18.1826H30.8574V19.2851H31.9658V18.1826Z" fill="white"/>
</svg>
