<svg width="26" height="18" viewBox="0 0 26 18" fill="none" xmlns="http://www.w3.org/2000/svg">
<g clip-path="url(#clip0_1119_17995)">
<g clip-path="url(#clip1_1119_17995)">
<path d="M25.9989 0.320312H0.00390625V17.6503H25.9989V0.320312Z" fill="#FF0000"/>
<path d="M10.4019 0.320312H0.00390625V17.6503H10.4019V0.320312Z" fill="#006600"/>
<path fill-rule="evenodd" clip-rule="evenodd" d="M13.7932 11.6733C12.4844 11.6339 6.48257 7.88756 6.44141 7.29098L6.77283 6.73828C7.36815 7.60331 13.5038 11.2467 14.1064 11.1176L13.7932 11.6731" fill="#FFFF00"/>
<path d="M13.7932 11.6733C12.4844 11.6339 6.48256 7.88756 6.44141 7.29098L6.77283 6.73828C7.36815 7.60331 13.5038 11.2467 14.1064 11.1176L13.7932 11.6731" stroke="black" stroke-width="0.0248252" stroke-linecap="round" stroke-linejoin="round"/>
<path fill-rule="evenodd" clip-rule="evenodd" d="M6.70204 6.66342C6.58463 6.97942 8.2682 8.02027 10.2938 9.25226C12.3193 10.4842 14.0659 11.2455 14.1954 11.1363C14.2033 11.1222 14.2591 11.0262 14.2539 11.027C14.2297 11.0635 14.1706 11.0751 14.0784 11.0485C13.5312 10.8907 12.1039 10.2355 10.3363 9.16363C8.56872 8.09164 7.03086 7.10379 6.79183 6.68405C6.77521 6.65498 6.76337 6.6019 6.76577 6.56063L6.75997 6.56055L6.70907 6.6495L6.70208 6.66345L6.70204 6.66342ZM13.8229 11.6909C13.8007 11.7311 13.7594 11.7325 13.6808 11.7238C13.1912 11.6696 11.7056 10.9472 9.9478 9.89495C7.90242 8.67059 6.21318 7.55497 6.39645 7.26339L6.44631 7.17524L6.45613 7.1783C6.29133 7.67242 9.7899 9.67287 9.99587 9.80042C12.0202 11.0545 13.7268 11.7869 13.8778 11.5966L13.8229 11.6911V11.691L13.8229 11.6909Z" fill="#FFFF00" stroke="black" stroke-width="0.0248252" stroke-linecap="round" stroke-linejoin="round"/>
<path fill-rule="evenodd" clip-rule="evenodd" d="M10.4093 7.65138C11.7194 7.64103 13.3359 7.47237 14.2663 7.10159L14.0658 6.77592C13.5159 7.08027 11.8905 7.2804 10.3983 7.31034C8.63338 7.2941 7.38761 7.12976 6.76343 6.71094L6.57422 7.05773C7.72164 7.54328 8.89742 7.64636 10.4093 7.65138Z" fill="#FFFF00" stroke="black" stroke-width="0.0248252" stroke-linecap="round" stroke-linejoin="round"/>
<path fill-rule="evenodd" clip-rule="evenodd" d="M14.3192 7.11034C14.2871 7.16154 13.6804 7.37078 12.7866 7.52519C12.1806 7.61758 11.3901 7.69656 10.4036 7.69752C9.46632 7.6984 8.70068 7.63168 8.12104 7.55312C7.18279 7.40601 6.69855 7.20132 6.51953 7.12899C6.53665 7.09494 6.54765 7.07106 6.56416 7.03927C7.07951 7.24446 7.56601 7.36818 8.13595 7.45587C8.71178 7.53386 9.46819 7.60153 10.4008 7.60065C11.3827 7.59966 12.1645 7.51468 12.767 7.42504C13.6836 7.27721 14.1842 7.08696 14.2546 6.99861L14.3193 7.11034H14.3192H14.3192ZM14.1432 6.78009C14.0439 6.85987 13.5489 7.03541 12.678 7.1745C12.0968 7.25779 11.3578 7.33234 10.4137 7.33326C9.51665 7.33414 8.78381 7.27369 8.22639 7.19249C7.34196 7.07698 6.87123 6.86862 6.70153 6.80787C6.71841 6.77868 6.73561 6.74972 6.75326 6.72064C6.88531 6.78712 7.33958 6.97153 8.2361 7.09853C8.7872 7.17668 9.52117 7.23491 10.4137 7.23399C11.3534 7.23303 12.084 7.15704 12.6615 7.07419C13.5369 6.95376 14.0079 6.72988 14.0795 6.67383L14.1433 6.78001L14.1432 6.78009Z" fill="#FFFF00" stroke="black" stroke-width="0.0248252" stroke-linecap="round" stroke-linejoin="round"/>
<path fill-rule="evenodd" clip-rule="evenodd" d="M6.1089 9.22957C6.91466 9.66295 8.70428 9.88135 10.3978 9.89639C11.9398 9.89883 13.9486 9.65803 14.6999 9.25994L14.6792 8.82617C14.4442 9.19345 12.2914 9.54576 10.3811 9.53133C8.47075 9.51692 6.69681 9.22186 6.10547 8.83991L6.10891 9.22946" fill="#FFFF00"/>
<path d="M6.1089 9.22957C6.91466 9.66295 8.70428 9.88135 10.3978 9.89639C11.9398 9.89883 13.9486 9.65803 14.6999 9.25994L14.6792 8.82617C14.4442 9.19345 12.2914 9.54576 10.3811 9.53133C8.47075 9.51692 6.69681 9.22186 6.10547 8.83991L6.10891 9.22946" stroke="black" stroke-width="0.0248252" stroke-linecap="round" stroke-linejoin="round"/>
<path fill-rule="evenodd" clip-rule="evenodd" d="M14.739 9.1672L14.7391 9.27063C14.6261 9.40563 13.9182 9.60967 13.0304 9.75336C12.3548 9.85695 11.4739 9.93508 10.3763 9.93508C9.33348 9.93508 8.5019 9.86072 7.85701 9.76172C6.83761 9.61327 6.18557 9.35333 6.05469 9.27575L6.05526 9.15508C6.44843 9.41647 7.51362 9.60769 7.87131 9.66623C8.512 9.76458 9.33864 9.83836 10.3762 9.83836C11.4687 9.83836 12.3447 9.76076 13.0161 9.65786C13.653 9.56585 14.5603 9.32658 14.739 9.16725L14.739 9.1672ZM14.7394 8.79927L14.7395 8.90271C14.6266 9.03763 13.9187 9.24167 13.0309 9.38535C12.3552 9.48894 11.4743 9.56707 10.3767 9.56707C9.33391 9.56707 8.50233 9.49279 7.85744 9.39371C6.83805 9.24534 6.18601 8.98539 6.05512 8.90778L6.05569 8.78711C6.44886 9.04847 7.51406 9.23973 7.87175 9.29817C8.51244 9.3966 9.33908 9.47042 10.3767 9.47042C11.4692 9.47042 12.3451 9.39278 13.0165 9.2898C13.6534 9.19779 14.5608 8.95852 14.7394 8.79919L14.7394 8.79927Z" fill="#FFFF00" stroke="black" stroke-width="0.0248252" stroke-linecap="round" stroke-linejoin="round"/>
<path fill-rule="evenodd" clip-rule="evenodd" d="M10.3934 11.5977C8.5403 11.5866 6.95248 11.0926 6.61719 11.0109L6.86168 11.3936C7.45394 11.6428 9.00298 12.0141 10.4112 11.9729C11.8194 11.9319 13.0501 11.8228 13.9174 11.4006L14.1681 11.0039C13.577 11.2823 11.5656 11.5948 10.3934 11.5977Z" fill="#FFFF00" stroke="black" stroke-width="0.0248252" stroke-linecap="round" stroke-linejoin="round"/>
<path fill-rule="evenodd" clip-rule="evenodd" d="M14.0093 11.3117C13.9725 11.368 13.9349 11.4236 13.8969 11.4776C13.4878 11.6219 12.8432 11.7733 12.5712 11.8175C12.0156 11.932 11.156 12.0165 10.3931 12.0169C8.75153 11.9929 7.40781 11.6715 6.77565 11.3974L6.72464 11.3097L6.73297 11.2965L6.81948 11.3301C7.94367 11.7323 9.20629 11.8927 10.4024 11.9215C11.1622 11.9242 11.9229 11.8345 12.5379 11.7244C13.4812 11.5355 13.8626 11.393 13.9796 11.3284L14.0093 11.3117ZM14.2267 10.9532C14.2277 10.9543 14.2286 10.9554 14.2295 10.9566C14.202 11.0031 14.1736 11.0504 14.1445 11.0979C13.9264 11.1759 13.3343 11.3491 12.4696 11.47C11.8999 11.5476 11.5458 11.6228 10.4126 11.6448C8.28902 11.5908 6.9141 11.1756 6.58747 11.0731L6.53906 10.9803C7.76975 11.3016 9.02687 11.5258 10.4127 11.5487C11.4495 11.5267 11.8906 11.4503 12.4555 11.3733C13.4637 11.2165 13.9717 11.0505 14.1242 11.0026C14.1223 10.9999 14.12 10.997 14.1175 10.994L14.2268 10.9531L14.2267 10.9532Z" fill="#FFFF00" stroke="black" stroke-width="0.0238288" stroke-linecap="round" stroke-linejoin="round"/>
<path fill-rule="evenodd" clip-rule="evenodd" d="M14.2514 8.88886C14.2574 10.1079 13.6336 11.2018 13.1311 11.6844C12.4203 12.3672 11.4777 12.8064 10.377 12.8266C9.14787 12.8492 7.98893 12.0479 7.67807 11.6958C7.07031 11.0076 6.57549 10.1337 6.55964 8.95584C6.63492 7.62537 7.15722 6.69861 7.91432 6.06307C8.67143 5.42754 9.67951 5.11803 10.5191 5.14017C11.4877 5.16573 12.6192 5.64092 13.4011 6.58427C13.9133 7.20235 14.1351 7.87311 14.2514 8.88886ZM10.3874 4.71484C12.748 4.71484 14.6894 6.63579 14.6894 8.99115C14.6894 11.3465 12.748 13.2675 10.3874 13.2675C8.02688 13.2675 6.10156 11.3465 6.10156 8.99115C6.10156 6.63579 8.02688 4.71484 10.3874 4.71484Z" fill="#FFFF00" stroke="black" stroke-width="0.0248252" stroke-linecap="round" stroke-linejoin="round"/>
<path fill-rule="evenodd" clip-rule="evenodd" d="M10.399 4.69922C12.7617 4.69922 14.6887 6.62644 14.6887 8.98935C14.6887 11.3522 12.7617 13.2794 10.399 13.2794C8.03634 13.2794 6.10938 11.3522 6.10938 8.98935C6.10938 6.62644 8.03638 4.69922 10.399 4.69922ZM6.20378 8.98936C6.20378 11.2969 8.09864 13.185 10.399 13.185C12.6995 13.185 14.5943 11.2969 14.5943 8.98936C14.5943 6.68179 12.6994 4.7936 10.399 4.7936C8.09864 4.7936 6.20378 6.68187 6.20378 8.98936Z" fill="#FFFF00" stroke="black" stroke-width="0.0248252" stroke-linecap="round" stroke-linejoin="round"/>
<path fill-rule="evenodd" clip-rule="evenodd" d="M10.4019 5.05664C12.5565 5.05664 14.3312 6.82521 14.3312 8.98639C14.3312 11.1476 12.5565 12.9161 10.4019 12.9161C8.24738 12.9161 6.47266 11.1476 6.47266 8.98639C6.47266 6.82521 8.24742 5.05664 10.4019 5.05664ZM6.56702 8.98637C6.56702 11.0956 8.29911 12.8217 10.4019 12.8217C12.5048 12.8217 14.2368 11.0956 14.2368 8.98637C14.2368 6.87704 12.5048 5.15102 10.4019 5.15102C8.29911 5.15102 6.56702 6.87704 6.56702 8.98637Z" fill="#FFFF00" stroke="black" stroke-width="0.0248252" stroke-linecap="round" stroke-linejoin="round"/>
<path fill-rule="evenodd" clip-rule="evenodd" d="M10.5747 4.68164H10.207L10.2075 13.3016H10.5764L10.5747 4.68164Z" fill="#FFFF00" stroke="black" stroke-width="0.0248252" stroke-linecap="round" stroke-linejoin="round"/>
<path fill-rule="evenodd" clip-rule="evenodd" d="M10.5367 4.63281H10.6303L10.6311 13.352H10.5375L10.5367 4.63281ZM10.1719 4.63289H10.2662L10.2663 13.352H10.1719V4.63289H10.1719Z" fill="#FFFF00" stroke="black" stroke-width="0.0248252" stroke-linecap="round" stroke-linejoin="round"/>
<path fill-rule="evenodd" clip-rule="evenodd" d="M14.6886 9.15526V8.83658L14.429 8.59483L12.956 8.20491L10.8331 7.98828L8.27689 8.11826L6.45724 8.55151L6.08984 8.82359V9.14234L7.02046 8.72481L9.23004 8.37821H11.353L12.9127 8.55151L13.9958 8.81146L14.6886 9.15526Z" fill="#FFFF00" stroke="black" stroke-width="0.0248252" stroke-linecap="round" stroke-linejoin="round"/>
<path fill-rule="evenodd" clip-rule="evenodd" d="M10.3996 8.32498C11.4126 8.32311 12.3956 8.42096 13.1752 8.57277C13.9797 8.7336 14.5459 8.93478 14.7394 9.16074L14.7392 9.27262C14.5058 8.99143 13.7439 8.7853 13.1571 8.66745C12.3834 8.51694 11.4071 8.41977 10.3996 8.42164C9.33647 8.42363 8.34654 8.52432 7.58415 8.67307C6.9724 8.79446 6.15654 9.03561 6.05469 9.27346V9.15696C6.11062 8.99232 6.71812 8.74628 7.57037 8.57567C8.33848 8.42589 9.33023 8.32693 10.3996 8.32498ZM10.4 7.95706C11.4131 7.95522 12.396 8.05312 13.1756 8.20485C13.9801 8.36575 14.5463 8.56686 14.7399 8.79281L14.7397 8.90469C14.5062 8.62358 13.7444 8.41741 13.1575 8.29961C12.3838 8.14903 11.4075 8.05186 10.4 8.05381C9.3369 8.05572 8.35178 8.15648 7.5893 8.30515C6.99896 8.41707 6.14979 8.66776 6.05508 8.90564V8.78906C6.11101 8.62621 6.73082 8.37134 7.5708 8.20777C8.33891 8.05798 9.33066 7.95908 10.4 7.95706Z" fill="#FFFF00" stroke="black" stroke-width="0.0248252" stroke-linecap="round" stroke-linejoin="round"/>
<path fill-rule="evenodd" clip-rule="evenodd" d="M10.3804 6.08028C11.9769 6.07229 13.3694 6.3035 14.0065 6.62986L14.2389 7.03187C13.6851 6.73345 12.1828 6.42315 10.3827 6.46955C8.916 6.47857 7.34881 6.63103 6.5625 7.05054L6.83993 6.58657C7.48526 6.25193 9.00713 6.08214 10.3805 6.08037" fill="#FFFF00"/>
<path d="M10.3804 6.08028C11.9769 6.07229 13.3694 6.3035 14.0065 6.62986L14.2389 7.03187C13.6851 6.73345 12.1828 6.42315 10.3827 6.46955C8.916 6.47857 7.34881 6.63103 6.5625 7.05054L6.83993 6.58657C7.48526 6.25193 9.00713 6.08214 10.3805 6.08037" stroke="black" stroke-width="0.0248252" stroke-linecap="round" stroke-linejoin="round"/>
<path fill-rule="evenodd" clip-rule="evenodd" d="M10.3999 6.41258C11.3104 6.41017 12.1903 6.46153 12.89 6.58777C13.5417 6.70905 14.1631 6.89109 14.252 6.98898L14.3209 7.11072C14.1048 6.96961 13.567 6.81249 12.8765 6.68154C12.183 6.55121 11.3038 6.50803 10.3983 6.5104C9.37052 6.50689 8.57204 6.56114 7.88677 6.68063C7.16203 6.81624 6.6592 7.00996 6.53516 7.10201L6.60267 6.97332C6.84369 6.85036 7.22612 6.70214 7.86876 6.58644C8.57742 6.45699 9.38439 6.41816 10.3999 6.41259L10.3999 6.41258ZM10.3995 6.045C11.2709 6.04271 12.1313 6.09127 12.8019 6.21183C13.3309 6.3148 13.854 6.47555 14.0455 6.61861L14.1463 6.77872C13.975 6.58832 13.3302 6.40788 12.761 6.30682C12.0955 6.19204 11.2709 6.1466 10.3995 6.13934C9.48496 6.1419 8.63982 6.19792 7.98401 6.31733C7.35835 6.43639 6.95461 6.57735 6.78378 6.68743L6.87238 6.5537C7.10813 6.42959 7.48898 6.31561 7.96863 6.22241C8.6293 6.10212 9.47961 6.04756 10.3995 6.045Z" fill="#FFFF00" stroke="black" stroke-width="0.0248252" stroke-linecap="round" stroke-linejoin="round"/>
<path fill-rule="evenodd" clip-rule="evenodd" d="M12.5302 10.7723C11.7409 10.6249 10.9501 10.6035 10.3978 10.61C7.73738 10.6412 6.87794 11.1563 6.77305 11.3123L6.57422 10.9881C7.25156 10.4972 8.70031 10.2219 10.4123 10.25C11.3012 10.2646 12.0683 10.3236 12.7136 10.4486L12.5301 10.7724" fill="#FFFF00"/>
<path d="M12.5302 10.7723C11.7409 10.6249 10.9501 10.6035 10.3978 10.61C7.73738 10.6412 6.87794 11.1563 6.77305 11.3123L6.57422 10.9881C7.25156 10.4972 8.70031 10.2219 10.4123 10.25C11.3012 10.2646 12.0683 10.3236 12.7136 10.4486L12.5301 10.7724" stroke="black" stroke-width="0.0248252" stroke-linecap="round" stroke-linejoin="round"/>
<path fill-rule="evenodd" clip-rule="evenodd" d="M10.3849 10.5638C11.125 10.5749 11.8515 10.6055 12.5526 10.7362L12.5019 10.8258C11.8506 10.7056 11.1564 10.6596 10.3875 10.6634C9.40559 10.6557 8.41249 10.7474 7.5479 10.9955C7.27509 11.0715 6.82346 11.2469 6.77741 11.3918L6.72689 11.3085C6.74145 11.2228 7.01441 11.045 7.52468 10.9017C8.515 10.6181 9.44133 10.5703 10.385 10.5638L10.3849 10.5638ZM10.4185 10.1914C11.1853 10.2057 11.9772 10.2412 12.7468 10.3937L12.6939 10.487C11.9989 10.349 11.3349 10.303 10.4231 10.289C9.43806 10.2908 8.39324 10.361 7.44325 10.6372C7.13655 10.7265 6.60721 10.9197 6.58957 11.0726L6.53906 10.9831C6.55056 10.8442 7.00879 10.663 7.42107 10.5431C8.37838 10.2648 9.42592 10.1932 10.4185 10.1914Z" fill="#FFFF00" stroke="black" stroke-width="0.0238288" stroke-linecap="round" stroke-linejoin="round"/>
<path fill-rule="evenodd" clip-rule="evenodd" d="M14.198 11.0375L13.8783 11.5336L12.9598 10.7178L10.5769 9.11477L7.89073 7.64172L6.49609 7.16471L6.7933 6.61362L6.89425 6.55859L7.76075 6.77522L10.6202 8.24827L12.2666 9.28807L13.653 10.2845L14.2162 10.9344L14.198 11.0375Z" fill="#FFFF00" stroke="black" stroke-width="0.0248252" stroke-linecap="round" stroke-linejoin="round"/>
<path fill-rule="evenodd" clip-rule="evenodd" d="M6.44465 7.17815C6.68926 7.01224 8.48695 7.81308 10.3679 8.94728C12.244 10.0847 14.0366 11.3701 13.8748 11.6106L13.8215 11.6943L13.7971 11.7136C13.8024 11.7098 13.8293 11.6769 13.7945 11.5877C13.7145 11.3247 12.443 10.31 10.3331 9.03605C8.27622 7.80956 6.56202 7.07035 6.39062 7.28164L6.44465 7.17815ZM14.2622 11.0309C14.4169 10.7254 12.7495 9.46931 10.6822 8.24633C8.56736 7.0477 7.04314 6.34215 6.76473 6.55254L6.70287 6.66514C6.70234 6.67133 6.70513 6.65746 6.7182 6.64737C6.76882 6.6032 6.85273 6.60618 6.89059 6.6055C7.36999 6.61268 8.73914 7.24276 10.6601 8.34404C11.5018 8.83426 14.2159 10.5749 14.2055 11.0644C14.2062 11.1064 14.209 11.1151 14.1932 11.1359L14.2622 11.0309Z" fill="#FFFF00"/>
<path d="M14.2622 11.0309C14.4169 10.7254 12.7495 9.46931 10.6822 8.24633C8.56736 7.0477 7.04314 6.34215 6.76473 6.55254L6.70287 6.66514C6.70234 6.67133 6.70513 6.65746 6.7182 6.64737C6.76882 6.6032 6.85273 6.60618 6.89059 6.6055C7.36999 6.61268 8.73914 7.24276 10.6601 8.34404C11.5018 8.83426 14.2159 10.5749 14.2055 11.0644C14.2062 11.1064 14.209 11.1151 14.1932 11.1359L14.2622 11.0309ZM14.2622 11.0309L14.2622 11.0309M6.44465 7.17815C6.68926 7.01224 8.48695 7.81308 10.3679 8.94728C12.244 10.0847 14.0366 11.3701 13.8748 11.6106L13.8215 11.6943L13.7971 11.7136C13.8024 11.7098 13.8293 11.6769 13.7945 11.5877C13.7145 11.3247 12.443 10.31 10.3331 9.03605C8.27622 7.80956 6.56202 7.07035 6.39062 7.28164L6.44465 7.17815Z" stroke="black" stroke-width="0.0248252" stroke-linecap="round" stroke-linejoin="round"/>
<path d="M7.82873 9.46207C7.82873 10.167 8.1174 10.8046 8.58506 11.2705C9.05362 11.7375 9.69036 12.0321 10.3964 12.0321C11.1061 12.0321 11.7502 11.7439 12.2168 11.2788C12.6833 10.8137 12.9725 10.1717 12.9726 9.46432H12.9725V6.03346L7.82812 6.02734L7.82866 9.46206L7.82873 9.46207Z" fill="white" stroke="black" stroke-width="0.0290438" stroke-linejoin="bevel"/>
<path d="M7.92586 9.46771V9.46966C7.92586 10.1437 8.20493 10.7574 8.65263 11.203C9.10122 11.6495 9.71903 11.9271 10.3949 11.9271C11.0743 11.9271 11.6908 11.6515 12.1375 11.2068C12.5841 10.762 12.8609 10.1482 12.861 9.47187H12.8609V6.14338L7.9288 6.14258L7.92578 9.46769M11.8693 7.1391L11.8695 9.2573L11.8677 9.48136C11.8677 9.54032 11.8642 9.60753 11.8573 9.66477C11.8172 9.99965 11.6632 10.2916 11.4351 10.5186C11.1681 10.7844 10.7995 10.9493 10.3933 10.9493C9.98916 10.9493 9.62904 10.7787 9.36086 10.5117C9.08576 10.2379 8.92631 9.86248 8.92631 9.47424L8.92574 7.13369L11.8692 7.139L11.8693 7.1391Z" fill="#FF0000"/>
<path d="M7.92586 9.46771V9.46966C7.92586 10.1437 8.20493 10.7574 8.65263 11.203C9.10122 11.6495 9.71903 11.9271 10.3949 11.9271C11.0743 11.9271 11.6908 11.6515 12.1375 11.2068C12.5841 10.762 12.8609 10.1482 12.861 9.47187H12.8609V6.14338L7.9288 6.14258L7.92578 9.46769M11.8693 7.1391L11.8695 9.2573L11.8677 9.48136C11.8677 9.54032 11.8642 9.60753 11.8573 9.66477C11.8172 9.99965 11.6632 10.2916 11.4351 10.5186C11.1681 10.7844 10.7995 10.9493 10.3933 10.9493C9.98916 10.9493 9.62904 10.7787 9.36086 10.5117C9.08576 10.2379 8.92631 9.86248 8.92631 9.47424L8.92574 7.13369L11.8692 7.139L11.8693 7.1391Z" stroke="black" stroke-width="0.0219805"/>
<path d="M8.24219 7.01151C8.24803 6.77232 8.41776 6.71569 8.41898 6.71485C8.4202 6.71405 8.6023 6.77584 8.60169 7.01373L8.24219 7.01151Z" fill="#FFFF00"/>
<path d="M8.09594 6.71851L8.06641 6.99339L8.2458 6.99378C8.24752 6.76636 8.41797 6.72852 8.42209 6.72937C8.42595 6.72915 8.59491 6.77965 8.59942 6.99378H8.77926L8.74679 6.7168L8.09596 6.71844L8.09594 6.71851Z" fill="#FFFF00" stroke="black" stroke-width="0.0216625"/>
<path d="M8.05547 6.99609H8.78965C8.80513 6.99609 8.81777 7.01138 8.81777 7.03006C8.81777 7.04871 8.80513 7.06392 8.78965 7.06392H8.05547C8.03999 7.06392 8.02734 7.04871 8.02734 7.03006C8.02734 7.01138 8.03999 6.99609 8.05547 6.99609Z" fill="#FFFF00" stroke="black" stroke-width="0.0216625"/>
<path d="M8.32422 6.9946C8.32502 6.85109 8.42222 6.81047 8.42272 6.81055C8.42276 6.81055 8.5242 6.85243 8.52501 6.9946H8.32422Z" fill="#FFFF00" stroke="black" stroke-width="0.0216625"/>
<path d="M8.06994 6.60547H8.77376C8.78858 6.60547 8.80073 6.61926 8.80073 6.636C8.80073 6.65277 8.78858 6.66653 8.77376 6.66653H8.06994C8.05512 6.66653 8.04297 6.65285 8.04297 6.636C8.04297 6.61926 8.05512 6.60547 8.06994 6.60547Z" fill="#FFFF00" stroke="black" stroke-width="0.0216625"/>
<path d="M8.08438 6.66602H8.75757C8.77174 6.66602 8.78336 6.67973 8.78336 6.69651C8.78336 6.71332 8.77174 6.72704 8.75757 6.72704H8.08438C8.07021 6.72704 8.05859 6.71332 8.05859 6.69651C8.05859 6.67973 8.07021 6.66602 8.08438 6.66602Z" fill="#FFFF00" stroke="black" stroke-width="0.0216625"/>
<path d="M8.30475 6.20779L8.3579 6.20787V6.24562H8.39668V6.20703L8.45113 6.2072V6.24564H8.49003V6.20705H8.54451L8.54442 6.29421C8.54442 6.30789 8.53342 6.31675 8.52066 6.31675H8.32954C8.3167 6.31675 8.30486 6.30647 8.30482 6.29394L8.30469 6.20782L8.30475 6.20779Z" fill="#FFFF00" stroke="black" stroke-width="0.0216625"/>
<path d="M8.50255 6.32495L8.51454 6.60445L8.32812 6.60376L8.34047 6.32422L8.50255 6.32495Z" fill="#FFFF00" stroke="black" stroke-width="0.0216625"/>
<path d="M8.27461 6.45312L8.2803 6.60379L8.10156 6.60387L8.10661 6.45313L8.27461 6.45312Z" fill="#FFFF00" stroke="black" stroke-width="0.0216625"/>
<path d="M8.73555 6.45312L8.74124 6.60379L8.5625 6.60387L8.56754 6.45313L8.73555 6.45312Z" fill="#FFFF00" stroke="black" stroke-width="0.0216625"/>
<path d="M8.07428 6.3445L8.12625 6.34463V6.38242H8.16426V6.34375L8.21753 6.34392V6.38244H8.25562V6.34377L8.30892 6.34386L8.30883 6.43101C8.30883 6.44462 8.29806 6.45348 8.2856 6.45348H8.09857C8.08604 6.45348 8.07439 6.44328 8.07435 6.43071L8.07422 6.34454L8.07428 6.3445Z" fill="#FFFF00" stroke="black" stroke-width="0.0216625"/>
<path d="M8.53522 6.3445L8.58718 6.34463V6.38242H8.6252V6.34375L8.67847 6.34392V6.38244H8.71656V6.34377L8.76986 6.34386L8.76977 6.43101C8.76977 6.44462 8.759 6.45348 8.74654 6.45348H8.55951C8.54698 6.45348 8.53533 6.44328 8.53529 6.43071L8.53516 6.34454L8.53522 6.3445Z" fill="#FFFF00" stroke="black" stroke-width="0.0216625"/>
<path d="M8.40237 6.41307C8.40122 6.3859 8.44035 6.3856 8.43989 6.41307V6.47963H8.40237L8.40237 6.41307Z" fill="black"/>
<path d="M8.17188 6.51012C8.17175 6.48387 8.20813 6.48334 8.20768 6.51012V6.56155H8.17189L8.17188 6.51012Z" fill="black"/>
<path d="M8.63281 6.51012C8.63268 6.48387 8.66907 6.48334 8.66861 6.51012V6.56155H8.63283L8.63281 6.51012Z" fill="black"/>
<path d="M8.24219 9.01737C8.24803 8.77818 8.41776 8.72155 8.41898 8.72071C8.4202 8.71991 8.6023 8.7817 8.60169 9.01959L8.24219 9.01737Z" fill="#FFFF00"/>
<path d="M8.09594 8.72437L8.06641 8.99925L8.2458 8.99964C8.24752 8.77222 8.41797 8.73438 8.42209 8.73522C8.42595 8.73501 8.59491 8.78551 8.59942 8.99964H8.77926L8.74679 8.72266L8.09596 8.7243L8.09594 8.72437Z" fill="#FFFF00" stroke="black" stroke-width="0.0216625"/>
<path d="M8.05547 9.00195H8.78965C8.80513 9.00195 8.81777 9.01724 8.81777 9.03592C8.81777 9.05457 8.80513 9.06978 8.78965 9.06978H8.05547C8.03999 9.06978 8.02734 9.05457 8.02734 9.03592C8.02734 9.01724 8.03999 9.00195 8.05547 9.00195Z" fill="#FFFF00" stroke="black" stroke-width="0.0216625"/>
<path d="M8.32422 9.00046C8.32502 8.85695 8.42222 8.81633 8.42272 8.81641C8.42276 8.81641 8.5242 8.85829 8.52501 9.00046H8.32422Z" fill="#FFFF00" stroke="black" stroke-width="0.0216625"/>
<path d="M8.06994 8.61133H8.77376C8.78858 8.61133 8.80073 8.62512 8.80073 8.64186C8.80073 8.65863 8.78858 8.67239 8.77376 8.67239H8.06994C8.05512 8.67239 8.04297 8.65871 8.04297 8.64186C8.04297 8.62512 8.05512 8.61133 8.06994 8.61133Z" fill="#FFFF00" stroke="black" stroke-width="0.0216625"/>
<path d="M8.08438 8.67188H8.75757C8.77174 8.67188 8.78336 8.68559 8.78336 8.70237C8.78336 8.71918 8.77174 8.7329 8.75757 8.7329H8.08438C8.07021 8.7329 8.05859 8.71918 8.05859 8.70237C8.05859 8.68559 8.07021 8.67188 8.08438 8.67188Z" fill="#FFFF00" stroke="black" stroke-width="0.0216625"/>
<path d="M8.30475 8.21364L8.3579 8.21373V8.25148H8.39668V8.21289L8.45113 8.21306V8.2515H8.49003V8.21291H8.54451L8.54442 8.30007C8.54442 8.31375 8.53342 8.32261 8.52066 8.32261H8.32954C8.3167 8.32261 8.30486 8.31233 8.30482 8.2998L8.30469 8.21368L8.30475 8.21364Z" fill="#FFFF00" stroke="black" stroke-width="0.0216625"/>
<path d="M8.50255 8.33081L8.51454 8.61031L8.32812 8.60962L8.34047 8.33008L8.50255 8.33081Z" fill="#FFFF00" stroke="black" stroke-width="0.0216625"/>
<path d="M8.27461 8.45898L8.2803 8.60965L8.10156 8.60973L8.10661 8.45899L8.27461 8.45898Z" fill="#FFFF00" stroke="black" stroke-width="0.0216625"/>
<path d="M8.73555 8.45898L8.74124 8.60965L8.5625 8.60973L8.56754 8.45899L8.73555 8.45898Z" fill="#FFFF00" stroke="black" stroke-width="0.0216625"/>
<path d="M8.07428 8.35036L8.12625 8.35049V8.38828H8.16426V8.34961L8.21753 8.34978V8.3883H8.25562V8.34963L8.30892 8.34972L8.30883 8.43687C8.30883 8.45048 8.29806 8.45934 8.2856 8.45934H8.09857C8.08604 8.45934 8.07439 8.44914 8.07435 8.43657L8.07422 8.3504L8.07428 8.35036Z" fill="#FFFF00" stroke="black" stroke-width="0.0216625"/>
<path d="M8.53522 8.35036L8.58718 8.35049V8.38828H8.6252V8.34961L8.67847 8.34978V8.3883H8.71656V8.34963L8.76986 8.34972L8.76977 8.43687C8.76977 8.45048 8.759 8.45934 8.74654 8.45934H8.55951C8.54698 8.45934 8.53533 8.44914 8.53529 8.43657L8.53516 8.3504L8.53522 8.35036Z" fill="#FFFF00" stroke="black" stroke-width="0.0216625"/>
<path d="M8.40237 8.41893C8.40122 8.39176 8.44035 8.39145 8.43989 8.41893V8.48549H8.40237L8.40237 8.41893Z" fill="black"/>
<path d="M8.17188 8.51598C8.17175 8.48973 8.20813 8.4892 8.20768 8.51598V8.56741H8.17189L8.17188 8.51598Z" fill="black"/>
<path d="M8.63281 8.51598C8.63268 8.48973 8.66907 8.4892 8.66861 8.51598V8.56741H8.63283L8.63281 8.51598Z" fill="black"/>
<path d="M9.02692 11.1075C8.86131 10.9348 8.94072 10.7745 8.94098 10.773C8.94127 10.7716 9.11343 10.6859 9.28181 10.8539L9.02692 11.1075Z" fill="#FFFF00"/>
<path d="M8.71734 11.0056L8.89158 11.2203L9.01826 11.0933C8.85809 10.9318 8.95135 10.7842 8.95485 10.7819C8.95742 10.779 9.1123 10.6947 9.26742 10.8423L9.39415 10.7147L9.17471 10.5426L8.7173 11.0056L8.71734 11.0056Z" fill="#FFFF00" stroke="black" stroke-width="0.0216625"/>
<path d="M8.8831 11.2281L9.40041 10.7071C9.41131 10.6961 9.43107 10.6979 9.44433 10.7111C9.45756 10.7242 9.45944 10.7439 9.44854 10.7549L8.93122 11.2759C8.92032 11.2869 8.90062 11.2851 8.88739 11.272C8.87413 11.2588 8.87219 11.2391 8.8831 11.2281Z" fill="#FFFF00" stroke="black" stroke-width="0.0216625"/>
<path d="M9.07201 11.0379C8.97074 10.9362 9.01041 10.8386 9.01081 10.8383C9.01084 10.8383 9.11203 10.7958 9.21349 10.8954L9.07201 11.0379Z" fill="#FFFF00" stroke="black" stroke-width="0.0216625"/>
<path d="M8.61666 10.9437L9.11258 10.4443C9.12302 10.4338 9.14137 10.4349 9.15325 10.4467C9.16515 10.4585 9.16635 10.4768 9.15591 10.4873L8.65999 10.9868C8.64955 10.9973 8.63128 10.9963 8.61932 10.9844C8.60744 10.9726 8.60622 10.9543 8.61666 10.9437Z" fill="#FFFF00" stroke="black" stroke-width="0.0216625"/>
<path d="M8.67052 10.9758L9.14485 10.4982C9.15484 10.4881 9.17275 10.4895 9.18466 10.5013C9.19659 10.5132 9.19814 10.5311 9.18815 10.5411L8.71382 11.0188C8.70383 11.0289 8.68591 11.0275 8.67398 11.0156C8.66208 11.0038 8.66053 10.9859 8.67052 10.9758Z" fill="#FFFF00" stroke="black" stroke-width="0.0216625"/>
<path d="M8.50058 10.4985L8.53809 10.4609L8.56488 10.4875L8.59221 10.46L8.56482 10.4328L8.60331 10.3943L8.63058 10.4213L8.65799 10.3937L8.63061 10.3665L8.669 10.3279L8.73078 10.3894C8.74049 10.399 8.73903 10.413 8.73003 10.4221L8.59537 10.5577C8.58632 10.5668 8.57068 10.568 8.56176 10.5592L8.50056 10.4986L8.50058 10.4985Z" fill="#FFFF00" stroke="black" stroke-width="0.0216625"/>
<path d="M8.72498 10.4373L8.93177 10.6257L8.79993 10.7575L8.61026 10.5518L8.72498 10.4373Z" fill="#FFFF00" stroke="black" stroke-width="0.0216625"/>
<path d="M8.65318 10.6917L8.7641 10.7938L8.63822 10.9207L8.53481 10.8109L8.65318 10.6917Z" fill="#FFFF00" stroke="black" stroke-width="0.0216625"/>
<path d="M8.9774 10.3655L9.08832 10.4676L8.96244 10.5945L8.85903 10.4847L8.9774 10.3655Z" fill="#FFFF00" stroke="black" stroke-width="0.0216625"/>
<path d="M8.43417 10.7563L8.47088 10.7196L8.49769 10.7462L8.52448 10.7192L8.49704 10.692L8.53469 10.6543L8.56202 10.6814L8.58887 10.6544L8.56143 10.6272L8.59904 10.5894L8.66083 10.6509C8.67048 10.6604 8.66918 10.6743 8.6604 10.6832L8.52862 10.8159C8.51979 10.8248 8.50434 10.8259 8.49539 10.817L8.43416 10.7564L8.43417 10.7563Z" fill="#FFFF00" stroke="black" stroke-width="0.0216625"/>
<path d="M8.75839 10.4302L8.7951 10.3934L8.82191 10.42L8.8487 10.393L8.82126 10.3658L8.85891 10.3281L8.88624 10.3553L8.91308 10.3282L8.88565 10.301L8.92326 10.2632L8.98505 10.3247C8.9947 10.3343 8.9934 10.3482 8.98462 10.357L8.85284 10.4897C8.84401 10.4986 8.82856 10.4997 8.81961 10.4909L8.75838 10.4302L8.75839 10.4302Z" fill="#FFFF00" stroke="black" stroke-width="0.0216625"/>
<path d="M8.71768 10.5711C8.6976 10.5527 8.72495 10.5248 8.74412 10.5444L8.79135 10.5913L8.76492 10.618L8.71768 10.5711Z" fill="black"/>
<path d="M8.62349 10.8031C8.60477 10.7847 8.63003 10.7585 8.64871 10.7777L8.68521 10.8139L8.65999 10.8393L8.62349 10.8031Z" fill="black"/>
<path d="M8.94771 10.475C8.92899 10.4565 8.95425 10.4303 8.97293 10.4495L9.00943 10.4858L8.98421 10.5112L8.94771 10.475Z" fill="black"/>
<path d="M10.2227 7.01151C10.2285 6.77232 10.3982 6.71569 10.3994 6.71485C10.4007 6.71405 10.5828 6.77584 10.5822 7.01373L10.2227 7.01151Z" fill="#FFFF00"/>
<path d="M10.0764 6.71851L10.0469 6.99339L10.2263 6.99378C10.228 6.76636 10.3984 6.72852 10.4026 6.72937C10.4064 6.72915 10.5754 6.77965 10.5799 6.99378H10.7597L10.7273 6.7168L10.0764 6.71844L10.0764 6.71851Z" fill="#FFFF00" stroke="black" stroke-width="0.0216625"/>
<path d="M10.0359 6.99609H10.7701C10.7856 6.99609 10.7982 7.01138 10.7982 7.03006C10.7982 7.04871 10.7856 7.06392 10.7701 7.06392H10.0359C10.0205 7.06392 10.0078 7.04871 10.0078 7.03006C10.0078 7.01138 10.0205 6.99609 10.0359 6.99609Z" fill="#FFFF00" stroke="black" stroke-width="0.0216625"/>
<path d="M10.3047 6.9946C10.3055 6.85109 10.4027 6.81047 10.4032 6.81055C10.4032 6.81055 10.5047 6.85243 10.5055 6.9946H10.3047Z" fill="#FFFF00" stroke="black" stroke-width="0.0216625"/>
<path d="M10.0504 6.60547H10.7542C10.7691 6.60547 10.7812 6.61926 10.7812 6.636C10.7812 6.65277 10.7691 6.66653 10.7542 6.66653H10.0504C10.0356 6.66653 10.0234 6.65285 10.0234 6.636C10.0234 6.61926 10.0356 6.60547 10.0504 6.60547Z" fill="#FFFF00" stroke="black" stroke-width="0.0216625"/>
<path d="M10.0649 6.66602H10.738C10.7522 6.66602 10.7638 6.67973 10.7638 6.69651C10.7638 6.71332 10.7522 6.72704 10.738 6.72704H10.0649C10.0507 6.72704 10.0391 6.71332 10.0391 6.69651C10.0391 6.67973 10.0507 6.66602 10.0649 6.66602Z" fill="#FFFF00" stroke="black" stroke-width="0.0216625"/>
<path d="M10.2852 6.20779L10.3384 6.20787V6.24562H10.3772V6.20703L10.4316 6.2072V6.24564H10.4705V6.20705H10.525L10.5249 6.29421C10.5249 6.30789 10.5139 6.31675 10.5011 6.31675H10.31C10.2972 6.31675 10.2853 6.30647 10.2853 6.29394L10.2852 6.20782L10.2852 6.20779Z" fill="#FFFF00" stroke="black" stroke-width="0.0216625"/>
<path d="M10.483 6.32495L10.495 6.60445L10.3086 6.60376L10.3209 6.32422L10.483 6.32495Z" fill="#FFFF00" stroke="black" stroke-width="0.0216625"/>
<path d="M10.2551 6.45312L10.2608 6.60379L10.082 6.60387L10.0871 6.45313L10.2551 6.45312Z" fill="#FFFF00" stroke="black" stroke-width="0.0216625"/>
<path d="M10.716 6.45312L10.7217 6.60379L10.543 6.60387L10.548 6.45313L10.716 6.45312Z" fill="#FFFF00" stroke="black" stroke-width="0.0216625"/>
<path d="M10.0548 6.3445L10.1067 6.34463V6.38242H10.1447V6.34375L10.198 6.34392V6.38244H10.2361V6.34377L10.2894 6.34386L10.2893 6.43101C10.2893 6.44462 10.2785 6.45348 10.2661 6.45348H10.079C10.0665 6.45348 10.0549 6.44328 10.0548 6.43071L10.0547 6.34454L10.0548 6.3445Z" fill="#FFFF00" stroke="black" stroke-width="0.0216625"/>
<path d="M10.5157 6.3445L10.5677 6.34463V6.38242H10.6057V6.34375L10.6589 6.34392V6.38244H10.697V6.34377L10.7503 6.34386L10.7502 6.43101C10.7502 6.44462 10.7395 6.45348 10.727 6.45348H10.54C10.5274 6.45348 10.5158 6.44328 10.5158 6.43071L10.5156 6.34454L10.5157 6.3445Z" fill="#FFFF00" stroke="black" stroke-width="0.0216625"/>
<path d="M10.3828 6.41307C10.3817 6.3859 10.4208 6.3856 10.4204 6.41307V6.47963H10.3828L10.3828 6.41307Z" fill="black"/>
<path d="M10.1523 6.51012C10.1522 6.48387 10.1886 6.48334 10.1881 6.51012V6.56155H10.1524L10.1523 6.51012Z" fill="black"/>
<path d="M10.6133 6.51012C10.6132 6.48387 10.6495 6.48334 10.6491 6.51012V6.56155H10.6133L10.6133 6.51012Z" fill="black"/>
<path d="M12.5508 7.01151C12.5449 6.77232 12.3752 6.71569 12.374 6.71485C12.3728 6.71405 12.1907 6.77584 12.1913 7.01373L12.5508 7.01151Z" fill="#FFFF00"/>
<path d="M12.697 6.71851L12.7266 6.99339L12.5472 6.99378C12.5455 6.76636 12.375 6.72852 12.3709 6.72937C12.367 6.72915 12.1981 6.77965 12.1936 6.99378H12.0137L12.0462 6.7168L12.697 6.71844L12.697 6.71851Z" fill="#FFFF00" stroke="black" stroke-width="0.0216625"/>
<path d="M12.7375 6.99609H12.0033C11.9878 6.99609 11.9752 7.01138 11.9752 7.03006C11.9752 7.04871 11.9878 7.06392 12.0033 7.06392H12.7375C12.753 7.06392 12.7656 7.04871 12.7656 7.03006C12.7656 7.01138 12.753 6.99609 12.7375 6.99609Z" fill="#FFFF00" stroke="black" stroke-width="0.0216625"/>
<path d="M12.4688 6.9946C12.4679 6.85109 12.3707 6.81047 12.3702 6.81055C12.3702 6.81055 12.2688 6.85243 12.268 6.9946H12.4688Z" fill="#FFFF00" stroke="black" stroke-width="0.0216625"/>
<path d="M12.723 6.60547H12.0192C12.0044 6.60547 11.9922 6.61926 11.9922 6.636C11.9922 6.65277 12.0044 6.66653 12.0192 6.66653H12.723C12.7378 6.66653 12.75 6.65285 12.75 6.636C12.75 6.61926 12.7378 6.60547 12.723 6.60547Z" fill="#FFFF00" stroke="black" stroke-width="0.0216625"/>
<path d="M12.7086 6.66602H12.0354C12.0212 6.66602 12.0096 6.67973 12.0096 6.69651C12.0096 6.71332 12.0212 6.72704 12.0354 6.72704H12.7086C12.7228 6.72704 12.7344 6.71332 12.7344 6.69651C12.7344 6.67973 12.7228 6.66602 12.7086 6.66602Z" fill="#FFFF00" stroke="black" stroke-width="0.0216625"/>
<path d="M12.4882 6.20779L12.4351 6.20787V6.24562H12.3963V6.20703L12.3418 6.2072V6.24564H12.3029V6.20705H12.2485L12.2485 6.29421C12.2485 6.30789 12.2595 6.31675 12.2723 6.31675H12.4634C12.4763 6.31675 12.4881 6.30647 12.4882 6.29394L12.4883 6.20782L12.4882 6.20779Z" fill="#FFFF00" stroke="black" stroke-width="0.0216625"/>
<path d="M12.2904 6.32495L12.2784 6.60445L12.4648 6.60376L12.4525 6.32422L12.2904 6.32495Z" fill="#FFFF00" stroke="black" stroke-width="0.0216625"/>
<path d="M12.5184 6.45312L12.5127 6.60379L12.6914 6.60387L12.6864 6.45313L12.5184 6.45312Z" fill="#FFFF00" stroke="black" stroke-width="0.0216625"/>
<path d="M12.0574 6.45312L12.0517 6.60379L12.2305 6.60387L12.2254 6.45313L12.0574 6.45312Z" fill="#FFFF00" stroke="black" stroke-width="0.0216625"/>
<path d="M12.7187 6.3445L12.6667 6.34463V6.38242H12.6287V6.34375L12.5754 6.34392V6.38244H12.5373V6.34377L12.484 6.34386L12.4841 6.43101C12.4841 6.44462 12.4949 6.45348 12.5074 6.45348H12.6944C12.7069 6.45348 12.7186 6.44328 12.7186 6.43071L12.7188 6.34454L12.7187 6.3445Z" fill="#FFFF00" stroke="black" stroke-width="0.0216625"/>
<path d="M12.2577 6.3445L12.2058 6.34463V6.38242H12.1678V6.34375L12.1145 6.34392V6.38244H12.0764V6.34377L12.0231 6.34386L12.0232 6.43101C12.0232 6.44462 12.034 6.45348 12.0464 6.45348H12.2335C12.246 6.45348 12.2576 6.44328 12.2577 6.43071L12.2578 6.34454L12.2577 6.3445Z" fill="#FFFF00" stroke="black" stroke-width="0.0216625"/>
<path d="M12.3906 6.41307C12.3917 6.3859 12.3526 6.3856 12.3531 6.41307V6.47963H12.3906L12.3906 6.41307Z" fill="black"/>
<path d="M12.6211 6.51012C12.6212 6.48387 12.5848 6.48334 12.5853 6.51012V6.56155H12.6211L12.6211 6.51012Z" fill="black"/>
<path d="M12.1602 6.51012C12.1603 6.48387 12.1239 6.48334 12.1244 6.51012V6.56155H12.1601L12.1602 6.51012Z" fill="black"/>
<path d="M12.5508 9.01737C12.5449 8.77818 12.3752 8.72155 12.374 8.72071C12.3728 8.71991 12.1907 8.7817 12.1913 9.01959L12.5508 9.01737Z" fill="#FFFF00"/>
<path d="M12.697 8.72437L12.7266 8.99925L12.5472 8.99964C12.5455 8.77222 12.375 8.73438 12.3709 8.73522C12.367 8.73501 12.1981 8.78551 12.1936 8.99964H12.0137L12.0462 8.72266L12.697 8.7243L12.697 8.72437Z" fill="#FFFF00" stroke="black" stroke-width="0.0216625"/>
<path d="M12.7375 9.00195H12.0033C11.9878 9.00195 11.9752 9.01724 11.9752 9.03592C11.9752 9.05457 11.9878 9.06978 12.0033 9.06978H12.7375C12.753 9.06978 12.7656 9.05457 12.7656 9.03592C12.7656 9.01724 12.753 9.00195 12.7375 9.00195Z" fill="#FFFF00" stroke="black" stroke-width="0.0216625"/>
<path d="M12.4688 9.00046C12.4679 8.85695 12.3707 8.81633 12.3702 8.81641C12.3702 8.81641 12.2688 8.85829 12.268 9.00046H12.4688Z" fill="#FFFF00" stroke="black" stroke-width="0.0216625"/>
<path d="M12.723 8.61133H12.0192C12.0044 8.61133 11.9922 8.62512 11.9922 8.64186C11.9922 8.65863 12.0044 8.67239 12.0192 8.67239H12.723C12.7378 8.67239 12.75 8.65871 12.75 8.64186C12.75 8.62512 12.7378 8.61133 12.723 8.61133Z" fill="#FFFF00" stroke="black" stroke-width="0.0216625"/>
<path d="M12.7086 8.67188H12.0354C12.0212 8.67188 12.0096 8.68559 12.0096 8.70237C12.0096 8.71918 12.0212 8.7329 12.0354 8.7329H12.7086C12.7228 8.7329 12.7344 8.71918 12.7344 8.70237C12.7344 8.68559 12.7228 8.67188 12.7086 8.67188Z" fill="#FFFF00" stroke="black" stroke-width="0.0216625"/>
<path d="M12.4882 8.21364L12.4351 8.21373V8.25148H12.3963V8.21289L12.3418 8.21306V8.2515H12.3029V8.21291H12.2485L12.2485 8.30007C12.2485 8.31375 12.2595 8.32261 12.2723 8.32261H12.4634C12.4763 8.32261 12.4881 8.31233 12.4882 8.2998L12.4883 8.21368L12.4882 8.21364Z" fill="#FFFF00" stroke="black" stroke-width="0.0216625"/>
<path d="M12.2904 8.33081L12.2784 8.61031L12.4648 8.60962L12.4525 8.33008L12.2904 8.33081Z" fill="#FFFF00" stroke="black" stroke-width="0.0216625"/>
<path d="M12.5184 8.45898L12.5127 8.60965L12.6914 8.60973L12.6864 8.45899L12.5184 8.45898Z" fill="#FFFF00" stroke="black" stroke-width="0.0216625"/>
<path d="M12.0574 8.45898L12.0517 8.60965L12.2305 8.60973L12.2254 8.45899L12.0574 8.45898Z" fill="#FFFF00" stroke="black" stroke-width="0.0216625"/>
<path d="M12.7187 8.35036L12.6667 8.35049V8.38828H12.6287V8.34961L12.5754 8.34978V8.3883H12.5373V8.34963L12.484 8.34972L12.4841 8.43687C12.4841 8.45048 12.4949 8.45934 12.5074 8.45934H12.6944C12.7069 8.45934 12.7186 8.44914 12.7186 8.43657L12.7188 8.3504L12.7187 8.35036Z" fill="#FFFF00" stroke="black" stroke-width="0.0216625"/>
<path d="M12.2577 8.35036L12.2058 8.35049V8.38828H12.1678V8.34961L12.1145 8.34978V8.3883H12.0764V8.34963L12.0231 8.34972L12.0232 8.43687C12.0232 8.45048 12.034 8.45934 12.0464 8.45934H12.2335C12.246 8.45934 12.2576 8.44914 12.2577 8.43657L12.2578 8.3504L12.2577 8.35036Z" fill="#FFFF00" stroke="black" stroke-width="0.0216625"/>
<path d="M12.3906 8.41893C12.3917 8.39176 12.3526 8.39145 12.3531 8.41893V8.48549H12.3906L12.3906 8.41893Z" fill="black"/>
<path d="M12.6211 8.51598C12.6212 8.48973 12.5848 8.4892 12.5853 8.51598V8.56741H12.6211L12.6211 8.51598Z" fill="black"/>
<path d="M12.1602 8.51598C12.1603 8.48973 12.1239 8.4892 12.1244 8.51598V8.56741H12.1601L12.1602 8.51598Z" fill="black"/>
<path d="M11.766 11.1075C11.9317 10.9348 11.8523 10.7745 11.852 10.773C11.8517 10.7716 11.6795 10.6859 11.5112 10.8539L11.766 11.1075Z" fill="#FFFF00"/>
<path d="M12.0756 11.0056L11.9014 11.2203L11.7747 11.0933C11.9349 10.9318 11.8416 10.7842 11.8381 10.7819C11.8356 10.779 11.6807 10.6947 11.5255 10.8423L11.3988 10.7147L11.6183 10.5426L12.0757 11.0056L12.0756 11.0056Z" fill="#FFFF00" stroke="black" stroke-width="0.0216625"/>
<path d="M11.9099 11.2281L11.3926 10.7071C11.3817 10.6961 11.3619 10.6979 11.3486 10.7111C11.3354 10.7242 11.3335 10.7439 11.3444 10.7549L11.8617 11.2759C11.8726 11.2869 11.8924 11.2851 11.9056 11.272C11.9188 11.2588 11.9208 11.2391 11.9099 11.2281Z" fill="#FFFF00" stroke="black" stroke-width="0.0216625"/>
<path d="M11.721 11.0379C11.8222 10.9362 11.7826 10.8386 11.7822 10.8383C11.7821 10.8383 11.6809 10.7958 11.5795 10.8954L11.721 11.0379Z" fill="#FFFF00" stroke="black" stroke-width="0.0216625"/>
<path d="M12.1763 10.9437L11.6804 10.4443C11.6699 10.4338 11.6516 10.4349 11.6397 10.4467C11.6278 10.4585 11.6266 10.4768 11.6371 10.4873L12.133 10.9868C12.1434 10.9973 12.1617 10.9963 12.1736 10.9844C12.1855 10.9726 12.1868 10.9543 12.1763 10.9437Z" fill="#FFFF00" stroke="black" stroke-width="0.0216625"/>
<path d="M12.1225 10.9758L11.6481 10.4982C11.6381 10.4881 11.6202 10.4895 11.6083 10.5013C11.5964 10.5132 11.5948 10.5311 11.6048 10.5411L12.0792 11.0188C12.0891 11.0289 12.1071 11.0275 12.119 11.0156C12.1309 11.0038 12.1324 10.9859 12.1225 10.9758Z" fill="#FFFF00" stroke="black" stroke-width="0.0216625"/>
<path d="M12.2924 10.4985L12.2549 10.4609L12.2281 10.4875L12.2008 10.46L12.2281 10.4328L12.1897 10.3943L12.1624 10.4213L12.135 10.3937L12.1624 10.3665L12.124 10.3279L12.0622 10.3894C12.0525 10.399 12.0539 10.413 12.0629 10.4221L12.1976 10.5577C12.2066 10.5668 12.2223 10.568 12.2312 10.5592L12.2924 10.4986L12.2924 10.4985Z" fill="#FFFF00" stroke="black" stroke-width="0.0216625"/>
<path d="M12.068 10.4373L11.8612 10.6257L11.993 10.7575L12.1827 10.5518L12.068 10.4373Z" fill="#FFFF00" stroke="black" stroke-width="0.0216625"/>
<path d="M12.1398 10.6917L12.0289 10.7938L12.1547 10.9207L12.2582 10.8109L12.1398 10.6917Z" fill="#FFFF00" stroke="black" stroke-width="0.0216625"/>
<path d="M11.8156 10.3655L11.7046 10.4676L11.8305 10.5945L11.9339 10.4847L11.8156 10.3655Z" fill="#FFFF00" stroke="black" stroke-width="0.0216625"/>
<path d="M12.3588 10.7563L12.3221 10.7196L12.2953 10.7462L12.2685 10.7192L12.2959 10.692L12.2583 10.6543L12.2309 10.6814L12.2041 10.6544L12.2315 10.6272L12.1939 10.5894L12.1321 10.6509C12.1225 10.6604 12.1238 10.6743 12.1326 10.6832L12.2643 10.8159C12.2732 10.8248 12.2886 10.8259 12.2976 10.817L12.3588 10.7564L12.3588 10.7563Z" fill="#FFFF00" stroke="black" stroke-width="0.0216625"/>
<path d="M12.0346 10.4302L11.9979 10.3934L11.9711 10.42L11.9443 10.393L11.9717 10.3658L11.9341 10.3281L11.9067 10.3553L11.8799 10.3282L11.9073 10.301L11.8697 10.2632L11.8079 10.3247C11.7983 10.3343 11.7996 10.3482 11.8083 10.357L11.9401 10.4897C11.949 10.4986 11.9644 10.4997 11.9734 10.4909L12.0346 10.4302L12.0346 10.4302Z" fill="#FFFF00" stroke="black" stroke-width="0.0216625"/>
<path d="M12.0753 10.5711C12.0954 10.5527 12.068 10.5248 12.0488 10.5444L12.0016 10.5913L12.0281 10.618L12.0753 10.5711Z" fill="black"/>
<path d="M12.1695 10.8031C12.1882 10.7847 12.1629 10.7585 12.1443 10.7777L12.1078 10.8139L12.133 10.8393L12.1695 10.8031Z" fill="black"/>
<path d="M11.8453 10.475C11.864 10.4565 11.8387 10.4303 11.82 10.4495L11.7835 10.4858L11.8088 10.5112L11.8453 10.475Z" fill="black"/>
<path d="M10.0821 9.08951V9.08973C10.0821 9.18556 10.1188 9.27287 10.1779 9.33622C10.237 9.39976 10.3185 9.43923 10.4076 9.43923C10.4971 9.43923 10.5785 9.40003 10.6373 9.33675C10.6962 9.27355 10.7327 9.18632 10.7327 9.0901V8.62358L10.0832 8.62305L10.0821 9.08951Z" fill="#003399"/>
<path d="M10.0821 7.96256V7.96277C10.0821 8.0586 10.1188 8.14592 10.1779 8.20927C10.237 8.27281 10.3185 8.31228 10.4076 8.31228C10.4971 8.31228 10.5785 8.27308 10.6373 8.2098C10.6962 8.1466 10.7327 8.05937 10.7327 7.96315V7.49663L10.0832 7.49609L10.0821 7.96256Z" fill="#003399"/>
<path d="M9.18362 9.08951V9.08973C9.18362 9.18556 9.22041 9.27287 9.27944 9.33622C9.33859 9.39976 9.42005 9.43923 9.50915 9.43923C9.59871 9.43923 9.68002 9.40003 9.7389 9.33675C9.79774 9.27355 9.83431 9.18632 9.83431 9.0901V8.62358L9.18478 8.62305L9.18362 9.08951Z" fill="#003399"/>
<path d="M10.9805 9.08951V9.08973C10.9805 9.18556 11.0173 9.27287 11.0763 9.33622C11.1355 9.39976 11.2169 9.43923 11.306 9.43923C11.3956 9.43923 11.4769 9.40003 11.5358 9.33675C11.5946 9.27355 11.6312 9.18632 11.6312 9.0901V8.62358L10.9817 8.62305L10.9805 9.08951Z" fill="#003399"/>
<path d="M10.0821 10.2067V10.2069C10.0821 10.3027 10.1188 10.3901 10.1779 10.4534C10.237 10.517 10.3185 10.5564 10.4076 10.5564C10.4971 10.5564 10.5785 10.5172 10.6373 10.4539C10.6962 10.3907 10.7327 10.3035 10.7327 10.2073V9.74077L10.0832 9.74023L10.0821 10.2067Z" fill="#003399"/>
</g>
</g>
<defs>
<clipPath id="clip0_1119_17995">
<rect width="26" height="17.33" fill="white" transform="translate(0 0.320312)"/>
</clipPath>
<clipPath id="clip1_1119_17995">
<rect width="25.995" height="17.33" fill="white" transform="translate(0.00390625 0.320312)"/>
</clipPath>
</defs>
</svg>
