<svg width="17" height="18" viewBox="0 0 17 18" fill="none" xmlns="http://www.w3.org/2000/svg">
<g clip-path="url(#clip0_1119_18150)">
<g clip-path="url(#clip1_1119_18150)">
<g clip-path="url(#clip2_1119_18150)">
<path fill-rule="evenodd" clip-rule="evenodd" d="M8.39349 17.942C8.9769 17.9965 9.56032 17.5142 10.9838 16.394C11.295 16.1451 11.3961 15.9818 11.7151 15.7406C12.2674 15.3128 13.193 14.1071 13.6287 13.5003C15.5656 10.8399 16.9813 6.2971 16.1412 2.6955C13.9709 2.18987 12.1973 1.95651 10.2137 0.953035C8.87578 0.284055 8.68131 -0.0270991 8.39349 0.0351316C8.10567 -0.0270991 7.9112 0.284055 6.57324 0.953035C4.58964 1.95651 2.81606 2.18987 0.645764 2.6955C-0.194351 6.2971 1.2214 10.8399 3.15055 13.5003C3.59395 14.1071 4.51963 15.3128 5.07193 15.7406C5.39086 15.9818 5.49198 16.1451 5.80314 16.394C7.22667 17.5142 7.81008 17.9965 8.39349 17.942Z" fill="#57B7F9"/>
<path fill-rule="evenodd" clip-rule="evenodd" d="M7.2894 10.1241C7.67834 9.86742 9.04742 8.16386 9.55305 7.69712C10.5487 6.77922 12.509 3.65991 13.248 5.18456C13.5514 5.81464 12.8979 6.32805 12.6257 6.6781C11.9567 7.53377 11.2411 8.41278 10.5565 9.23734C8.15285 12.1388 7.7328 13.7257 5.5625 11.4621C5.17356 11.0498 3.05771 9.73518 4.31788 8.8095C5.29024 8.10162 6.23148 9.64183 7.2894 10.1241Z" fill="white"/>
</g>
</g>
</g>
<defs>
<clipPath id="clip0_1119_18150">
<rect width="16" height="17.97" fill="white" transform="translate(0.394531)"/>
</clipPath>
<clipPath id="clip1_1119_18150">
<rect width="16" height="17.97" fill="white" transform="translate(0.394531)"/>
</clipPath>
<clipPath id="clip2_1119_18150">
<rect width="15.9933" height="17.97" fill="white" transform="translate(0.398438)"/>
</clipPath>
</defs>
</svg>
